<svg width="46" height="45" viewBox="0 0 46 45" fill="none" xmlns="http://www.w3.org/2000/svg">
<g clip-path="url(#clip0_581_14945)">
<path d="M23 0.5C35.1503 0.5 45 10.3497 45 22.5C45 34.6503 35.1503 44.5 23 44.5C10.8497 44.5 1 34.6503 1 22.5C1 10.3497 10.8497 0.5 23 0.5Z" fill="#004D40" stroke="#4CAF50"/>
<path d="M23 16.574L22.452 17.086C22.5222 17.1611 22.607 17.221 22.7013 17.2619C22.7956 17.3028 22.8972 17.3239 23 17.3239C23.1028 17.3239 23.2044 17.3028 23.2987 17.2619C23.393 17.221 23.4778 17.1611 23.548 17.086L23 16.574ZM20.434 29.796C18.984 28.62 17.292 27.077 15.968 25.388C14.629 23.681 13.75 21.928 13.75 20.318H12.25C12.25 22.435 13.38 24.52 14.787 26.314C16.209 28.127 17.997 29.75 19.489 30.961L20.434 29.796ZM13.75 20.318C13.75 17.413 15.018 15.618 16.586 15.003C18.151 14.39 20.34 14.828 22.452 17.086L23.548 16.062C21.16 13.508 18.349 12.702 16.039 13.606C13.732 14.51 12.25 16.992 12.25 20.318H13.75ZM26.51 30.96C28.003 29.749 29.791 28.126 31.213 26.313C32.62 24.519 33.75 22.434 33.75 20.316H32.25C32.25 21.928 31.37 23.68 30.032 25.387C28.708 27.076 27.016 28.619 25.566 29.795L26.51 30.96ZM33.75 20.316C33.75 16.991 32.268 14.509 29.96 13.606C27.65 12.701 24.84 13.506 22.452 16.061L23.548 17.086C25.66 14.828 27.849 14.389 29.414 15.002C30.982 15.616 32.25 17.412 32.25 20.316H33.75ZM19.489 30.961C20.759 31.993 21.642 32.75 23 32.75V31.25C22.277 31.25 21.827 30.926 20.434 29.796L19.489 30.961ZM25.566 29.795C24.173 30.925 23.723 31.25 23 31.25V32.75C24.358 32.75 25.241 31.993 26.511 30.961L25.566 29.795Z" fill="#8AEB8E"/>
<path d="M29.5 20H27.5M27.5 20H25.5M27.5 20V18M27.5 20V22" stroke="#8AEB8E" stroke-width="1.5" stroke-linecap="round"/>
</g>
<defs>
<clipPath id="clip0_581_14945">
<rect width="45" height="45" fill="white" transform="translate(0.5)"/>
</clipPath>
</defs>
</svg>
