<svg width="32" height="32" viewBox="0 0 32 32" fill="none" xmlns="http://www.w3.org/2000/svg">
<path d="M12.1797 4.48608C13.9332 3.1276 16.7854 3.05675 18.6094 4.33472H18.6104L26.29 9.70776C26.9022 10.1363 27.487 10.8432 27.9189 11.6707C28.3508 12.498 28.5967 13.3826 28.5967 14.1335V23.1736C28.5965 26.1593 26.1722 28.5837 23.1865 28.5837H8.81348C5.8298 28.5837 3.40332 26.1478 3.40332 23.1599V13.9597C3.40338 13.2631 3.62608 12.4239 4.01953 11.6248C4.36367 10.9258 4.81406 10.3072 5.29395 9.8728L5.50098 9.698L12.1787 4.48511L12.1797 4.48608ZM16 18.2498C15.0392 18.2498 14.2501 19.039 14.25 19.9998V23.9998C14.25 24.9606 15.0391 25.7498 16 25.7498C16.9609 25.7497 17.75 24.9606 17.75 23.9998V19.9998C17.7499 19.039 16.9608 18.2498 16 18.2498Z" fill="#004D40" stroke="#004D40" stroke-width="1.5"/>
</svg>
