<svg width="230" height="230" viewBox="0 0 230 230" fill="none" xmlns="http://www.w3.org/2000/svg">
<path opacity="0.18" d="M213.527 177.841C218.482 170.632 222.203 162.582 224.388 154.114C236.173 108.394 200.128 69.0414 163.222 47.61C143.759 36.3078 119.37 31.4456 98.4723 39.8084C85.5095 44.9972 74.98 54.6894 63.5583 62.7256C51.8834 70.9412 39.0909 77.533 27.8117 86.2822C8.67565 101.14 0.529053 119.72 2.86125 143.764C4.78405 163.581 13.1699 182.487 25.8889 197.726C37.5039 211.646 60.3245 215.34 77.5837 212.29C91.6459 209.806 104.742 202.635 118.988 201.678C137.545 200.431 156.06 209.88 174.299 206.25C180.458 205.027 186.254 202.336 191.576 199.001C200.247 193.559 207.731 186.277 213.527 177.841Z" fill="#4CAF50"/>
<path d="M194.373 199.12H42.6189V58.811L120.672 9.3196L194.373 58.811V199.12Z" fill="#4CAF50"/>
<path d="M181.599 183.149H55.3884V66.4516L120.308 25.2908L181.599 66.4516V183.149Z" fill="url(#paint0_linear_349_11902)"/>
<path d="M35.7512 163.7C39.0954 171.681 40.1764 178.834 38.1616 179.676C36.1468 180.522 31.7998 174.736 28.4556 166.759C25.1114 158.778 26.0452 150.783 26.0452 150.783C26.0452 150.783 32.407 155.724 35.7512 163.7Z" fill="#4CAF50"/>
<path d="M35.7512 163.7C39.0954 171.681 40.1764 178.834 38.1616 179.676C36.1468 180.522 31.7998 174.736 28.4556 166.759C25.1114 158.778 26.0452 150.783 26.0452 150.783C26.0452 150.783 32.407 155.724 35.7512 163.7Z" fill="url(#paint1_linear_349_11902)"/>
<path d="M42.1453 163.7C38.8011 171.681 37.7201 178.834 39.7349 179.676C41.7497 180.522 46.0967 174.736 49.4409 166.759C52.7851 158.778 51.8513 150.783 51.8513 150.783C51.8513 150.783 45.4895 155.724 42.1453 163.7Z" fill="#4CAF50"/>
<path d="M42.1453 163.7C38.8011 171.681 37.7201 178.834 39.7349 179.676C41.7497 180.522 46.0967 174.736 49.4409 166.759C52.7851 158.778 51.8513 150.783 51.8513 150.783C51.8513 150.783 45.4895 155.724 42.1453 163.7Z" fill="url(#paint2_linear_349_11902)"/>
<path d="M42.6742 161.888C42.6742 170.54 40.9032 177.555 38.7182 177.555C36.5332 177.555 34.7622 170.54 34.7622 161.888C34.7622 153.235 38.7182 146.22 38.7182 146.22C38.7182 146.22 42.6742 153.235 42.6742 161.888Z" fill="#4CAF50"/>
<path d="M29.2468 176.93H49.1004V189.939C49.1004 195.417 44.6522 199.865 39.1736 199.865C33.695 199.865 29.2468 195.417 29.2468 189.939V176.93Z" fill="white"/>
<path d="M42.6742 176.93H49.1004V189.939C49.1004 195.422 44.6568 199.865 39.1736 199.865C33.6904 199.865 29.2468 195.422 29.2468 189.939V176.93H42.6742Z" fill="url(#paint3_linear_349_11902)"/>
<rect x="104.578" y="141.844" width="18.605" height="18.605" rx="2.12627" transform="rotate(-45 104.578 141.844)" fill="#8AEB8E"/>
<rect x="131.689" y="128.689" width="12.7577" height="12.7577" rx="1.06314" fill="#8AEB8E"/>
<rect x="131.157" y="143.041" width="5.3157" height="5.3157" rx="2.12627" fill="#8AEB8E"/>
<rect x="131.157" y="81.9104" width="5.3157" height="5.3157" rx="2.12627" fill="#8AEB8E"/>
<rect x="99.7942" y="81.9104" width="5.3157" height="5.3157" rx="2.12627" fill="#8AEB8E"/>
<rect x="84.9104" y="96.2629" width="5.3157" height="5.3157" rx="2.12627" fill="#8AEB8E"/>
<rect x="146.041" y="96.2629" width="5.3157" height="5.3157" rx="2.12627" fill="#8AEB8E"/>
<rect x="146.041" y="128.689" width="5.3157" height="5.3157" rx="2.12627" fill="#8AEB8E"/>
<rect x="84.9104" y="128.689" width="5.3157" height="5.3157" rx="2.12627" fill="#8AEB8E"/>
<rect x="99.7942" y="143.041" width="5.3157" height="5.3157" rx="2.12627" fill="#8AEB8E"/>
<rect x="91.8208" y="128.689" width="12.7577" height="12.7577" rx="2.12627" fill="#8AEB8E"/>
<rect x="91.8208" y="88.8209" width="12.7577" height="12.7577" rx="2.12627" fill="#8AEB8E"/>
<rect x="131.689" y="88.8209" width="12.7577" height="12.7577" rx="2.12627" fill="#8AEB8E"/>
<rect x="104.578" y="88.1556" width="18.605" height="18.605" rx="2.12627" transform="rotate(-45 104.578 88.1556)" fill="#8AEB8E"/>
<rect x="78" y="115.266" width="18.605" height="18.605" rx="2.12627" transform="rotate(-45 78 115.266)" fill="#8AEB8E"/>
<rect x="131.689" y="115.266" width="18.605" height="18.605" rx="2.12627" transform="rotate(-45 131.689 115.266)" fill="#8AEB8E"/>
<circle cx="117.868" cy="114.868" r="7.44199" fill="#8AEB8E"/>
<defs>
<linearGradient id="paint0_linear_349_11902" x1="103.831" y1="-71.2218" x2="147.25" y2="509.202" gradientUnits="userSpaceOnUse">
<stop stop-color="#221F20"/>
<stop offset="0.08" stop-color="#221F20" stop-opacity="0.69"/>
<stop offset="0.11" stop-color="#221F20" stop-opacity="0.6"/>
<stop offset="0.25" stop-color="#221F20" stop-opacity="0.25"/>
<stop offset="0.45" stop-color="#221F20" stop-opacity="0.06"/>
<stop offset="1" stop-color="#221F20" stop-opacity="0"/>
</linearGradient>
<linearGradient id="paint1_linear_349_11902" x1="46.9936" y1="170.867" x2="29.5182" y2="164.45" gradientUnits="userSpaceOnUse">
<stop stop-color="#221F20"/>
<stop offset="0.08" stop-color="#221F20" stop-opacity="0.69"/>
<stop offset="0.21" stop-color="#221F20" stop-opacity="0.32"/>
<stop offset="1" stop-color="#221F20" stop-opacity="0"/>
</linearGradient>
<linearGradient id="paint2_linear_349_11902" x1="30.5809" y1="150.659" x2="59.9059" y2="178.843" gradientUnits="userSpaceOnUse">
<stop stop-color="#221F20"/>
<stop offset="0.08" stop-color="#221F20" stop-opacity="0.69"/>
<stop offset="0.21" stop-color="#221F20" stop-opacity="0.32"/>
<stop offset="1" stop-color="#221F20" stop-opacity="0"/>
</linearGradient>
<linearGradient id="paint3_linear_349_11902" x1="15.3318" y1="185.362" x2="39.3944" y2="187.919" gradientUnits="userSpaceOnUse">
<stop stop-color="#221F20"/>
<stop offset="0.08" stop-color="#221F20" stop-opacity="0.69"/>
<stop offset="0.21" stop-color="#221F20" stop-opacity="0.32"/>
<stop offset="1" stop-color="#221F20" stop-opacity="0"/>
</linearGradient>
</defs>
</svg>
