<svg width="31" height="31" viewBox="0 0 31 31" fill="none" xmlns="http://www.w3.org/2000/svg">
<rect x="10.2988" y="25.9013" width="7.20942" height="7.20942" rx="0.823904" transform="rotate(-45 10.2988 25.9013)" fill="#8AEB8E"/>
<rect x="20.8037" y="20.8037" width="4.9436" height="4.9436" rx="0.411952" fill="#8AEB8E"/>
<rect x="20.5977" y="26.365" width="2.05983" height="2.05983" rx="0.823904" fill="#8AEB8E"/>
<rect x="20.5977" y="2.6777" width="2.05983" height="2.05983" rx="0.823904" fill="#8AEB8E"/>
<rect x="8.44531" y="2.6777" width="2.05983" height="2.05983" rx="0.823904" fill="#8AEB8E"/>
<rect x="2.67773" y="8.23911" width="2.05983" height="2.05983" rx="0.823904" fill="#8AEB8E"/>
<rect x="26.3652" y="8.23911" width="2.05983" height="2.05983" rx="0.823904" fill="#8AEB8E"/>
<rect x="26.3652" y="20.8037" width="2.05983" height="2.05983" rx="0.823904" fill="#8AEB8E"/>
<rect x="2.67773" y="20.8037" width="2.05983" height="2.05983" rx="0.823904" fill="#8AEB8E"/>
<rect x="8.44531" y="26.365" width="2.05983" height="2.05983" rx="0.823904" fill="#8AEB8E"/>
<rect x="5.35547" y="20.8037" width="4.9436" height="4.9436" rx="0.823904" fill="#8AEB8E"/>
<rect x="5.35645" y="5.35558" width="4.9436" height="4.9436" rx="0.823904" fill="#8AEB8E"/>
<rect x="20.8037" y="5.35541" width="4.9436" height="4.9436" rx="0.823904" fill="#8AEB8E"/>
<rect x="10.2988" y="5.09763" width="7.20942" height="7.20942" rx="0.823904" transform="rotate(-45 10.2988 5.09763)" fill="#8AEB8E"/>
<rect y="15.6025" width="7.20942" height="7.20942" rx="0.823904" transform="rotate(-45 0 15.6025)" fill="#8AEB8E"/>
<rect x="20.8037" y="15.6025" width="7.20942" height="7.20942" rx="0.823904" transform="rotate(-45 20.8037 15.6025)" fill="#8AEB8E"/>
<circle cx="15.2832" cy="15.2834" r="2.88377" fill="#8AEB8E"/>
</svg>
