<svg width="101" height="101" viewBox="0 0 101 101" fill="none" xmlns="http://www.w3.org/2000/svg">
<rect x="33.5552" y="84.3909" width="23.4888" height="23.4888" rx="2.68442" transform="rotate(-45 33.5552 84.3909)" fill="#FAFAFA"/>
<rect x="67.7818" y="67.7819" width="16.1066" height="16.1066" rx="1.34221" fill="#FAFAFA"/>
<rect x="67.1107" y="85.9018" width="6.71108" height="6.71108" rx="2.68442" fill="#FAFAFA"/>
<rect x="67.1107" y="8.7244" width="6.71108" height="6.71108" rx="2.68442" fill="#FAFAFA"/>
<rect x="27.5153" y="8.7244" width="6.71108" height="6.71108" rx="2.68442" fill="#FAFAFA"/>
<rect x="8.72437" y="26.8443" width="6.71108" height="6.71108" rx="2.68442" fill="#FAFAFA"/>
<rect x="85.9017" y="26.8443" width="6.71108" height="6.71108" rx="2.68442" fill="#FAFAFA"/>
<rect x="85.9017" y="67.7819" width="6.71108" height="6.71108" rx="2.68442" fill="#FAFAFA"/>
<rect x="8.72437" y="67.7819" width="6.71108" height="6.71108" rx="2.68442" fill="#FAFAFA"/>
<rect x="27.5153" y="85.9018" width="6.71108" height="6.71108" rx="2.68442" fill="#FAFAFA"/>
<rect x="17.4487" y="67.7819" width="16.1066" height="16.1066" rx="2.68442" fill="#FAFAFA"/>
<rect x="17.4487" y="17.4488" width="16.1066" height="16.1066" rx="2.68442" fill="#FAFAFA"/>
<rect x="67.7818" y="17.4488" width="16.1066" height="16.1066" rx="2.68442" fill="#FAFAFA"/>
<rect x="33.5552" y="16.6091" width="23.4888" height="23.4888" rx="2.68442" transform="rotate(-45 33.5552 16.6091)" fill="#FAFAFA"/>
<rect y="50.8356" width="23.4888" height="23.4888" rx="2.68442" transform="rotate(-45 0 50.8356)" fill="#FAFAFA"/>
<rect x="67.7818" y="50.8356" width="23.4888" height="23.4888" rx="2.68442" transform="rotate(-45 67.7818 50.8356)" fill="#FAFAFA"/>
<circle cx="50.3335" cy="50.3331" r="9.39551" fill="#FAFAFA"/>
</svg>
