<svg width="45" height="45" viewBox="0 0 45 45" fill="none" xmlns="http://www.w3.org/2000/svg">
<path d="M22.5 0.5C34.6503 0.5 44.5 10.3497 44.5 22.5C44.5 34.6503 34.6503 44.5 22.5 44.5C10.3497 44.5 0.5 34.6503 0.5 22.5C0.5 10.3497 10.3497 0.5 22.5 0.5Z" fill="#004D40" stroke="#4CAF50"/>
<rect x="17.2988" y="32.9013" width="7.20942" height="7.20942" rx="0.823904" transform="rotate(-45 17.2988 32.9013)" fill="#8AEB8E"/>
<rect x="27.8037" y="27.8037" width="4.9436" height="4.9436" rx="0.411952" fill="#8AEB8E"/>
<rect x="27.5977" y="33.365" width="2.05983" height="2.05983" rx="0.823904" fill="#8AEB8E"/>
<rect x="27.5977" y="9.6777" width="2.05983" height="2.05983" rx="0.823904" fill="#8AEB8E"/>
<rect x="15.4453" y="9.6777" width="2.05983" height="2.05983" rx="0.823904" fill="#8AEB8E"/>
<rect x="9.67773" y="15.2391" width="2.05983" height="2.05983" rx="0.823904" fill="#8AEB8E"/>
<rect x="33.3652" y="15.2391" width="2.05983" height="2.05983" rx="0.823904" fill="#8AEB8E"/>
<rect x="33.3652" y="27.8037" width="2.05983" height="2.05983" rx="0.823904" fill="#8AEB8E"/>
<rect x="9.67773" y="27.8037" width="2.05983" height="2.05983" rx="0.823904" fill="#8AEB8E"/>
<rect x="15.4453" y="33.365" width="2.05983" height="2.05983" rx="0.823904" fill="#8AEB8E"/>
<rect x="12.3555" y="27.8037" width="4.9436" height="4.9436" rx="0.823904" fill="#8AEB8E"/>
<rect x="12.3564" y="12.3556" width="4.9436" height="4.9436" rx="0.823904" fill="#8AEB8E"/>
<rect x="27.8037" y="12.3554" width="4.9436" height="4.9436" rx="0.823904" fill="#8AEB8E"/>
<rect x="17.2988" y="12.0976" width="7.20942" height="7.20942" rx="0.823904" transform="rotate(-45 17.2988 12.0976)" fill="#8AEB8E"/>
<rect x="7" y="22.6025" width="7.20942" height="7.20942" rx="0.823904" transform="rotate(-45 7 22.6025)" fill="#8AEB8E"/>
<rect x="27.8037" y="22.6025" width="7.20942" height="7.20942" rx="0.823904" transform="rotate(-45 27.8037 22.6025)" fill="#8AEB8E"/>
<circle cx="22.2832" cy="22.2834" r="2.88377" fill="#8AEB8E"/>
</svg>
