<svg width="230" height="230" viewBox="0 0 230 230" fill="none" xmlns="http://www.w3.org/2000/svg">
<g clip-path="url(#clip0_300_11257)">
<path opacity="0.24" d="M229.363 114.54C227.865 134.214 213.891 152.196 215.229 171.594C215.284 172.408 215.362 173.222 215.472 174.009C215.723 175.932 216.136 177.831 216.543 179.713C217.093 182.275 217.62 184.837 217.702 187.455C217.798 190.564 217.093 193.899 215.394 196.42C214.606 197.598 213.557 198.573 212.33 199.272C212.046 199.428 211.753 199.571 211.455 199.7C209.783 200.344 208.024 200.744 206.238 200.882C180.352 203.619 154.608 194.313 128.566 194.621C106.655 194.884 85.1522 201.958 63.4705 204.452C60.2232 204.833 56.9806 205.114 53.7334 205.234C50.7289 205.376 47.7244 205.376 44.7153 205.234C43.5795 205.174 42.462 205.096 41.349 205.004C39.8422 204.879 38.3446 204.695 36.8423 204.461C28.4197 203.237 20.1665 200.463 13.553 195.155C0.385515 184.584 -3.77313 164.984 1.64501 148.92C5.16704 138.474 12.2477 128.998 12.7927 118.004C13.4065 105.713 5.7487 94.6542 3.22512 82.6068C2.13507 77.5008 2.00683 72.2338 2.14881 67.0266C2.40529 58.7788 3.77014 49.795 9.76078 44.1646C11.3867 42.6926 13.1958 41.4368 15.1377 40.4248C16.2094 39.8406 17.2811 39.3024 18.3849 38.7642C22.6397 36.6528 26.9449 34.5782 31.2501 32.5772C46.6664 25.3 62.3025 18.5288 78.1493 12.2728C87.6162 8.53762 97.2938 4.92202 107.429 3.95602C126.01 2.19882 144.207 9.43002 161.057 17.5352C170.047 21.873 178.928 26.5006 188.166 30.3692C190.538 31.3536 192.929 32.292 195.352 33.1384C197.449 33.8974 199.579 34.6012 201.722 35.213C204.461 36.0272 208.157 36.2664 211.056 37.3244L211.652 37.5544C212.44 37.8718 213.168 38.318 213.804 38.8792L213.928 38.9896C219.635 44.3992 221.81 59.1974 223.473 66.6632C225.589 76.1346 226.885 85.7808 228.158 95.3994C228.992 101.752 229.844 108.164 229.363 114.549V114.54Z" fill="white"/>
<path d="M134.937 108.312L150.133 104.843C150.133 104.843 152.29 111.881 155.702 113.04C157.498 113.648 159.458 113.142 160.745 112.465C160.745 112.465 164.221 110.313 164.478 109.82C164.936 108.914 162.284 108.896 162.023 107.576C161.18 103.247 159.362 102.971 159.362 102.971L179.074 98.4584L182.99 96.0112L165.705 61.7412L135.033 64.1884L125.268 64.2344L121.357 66.6816L126.977 83.467C126.977 83.467 138.889 80.684 137.387 87.5656C136.64 91.011 133.947 90.827 133.613 89.0974L129.697 91.5446" fill="#231F20"/>
<path d="M138.949 61.7458L125.268 64.239L130.902 81.0198C130.902 81.0198 140.254 78.6416 141.317 85.1184C142.283 91.0294 133.627 89.0974 133.627 89.0974L138.848 105.864L154.045 102.396C154.045 102.396 156.202 109.429 159.614 110.593C163.026 111.757 166.781 109.457 165.925 105.119C165.069 100.781 163.259 100.519 163.259 100.519L182.976 96.0066L169.621 59.3032L138.949 61.7504V61.7458Z" fill="white"/>
<path d="M165.925 105.119C166.768 109.443 163.017 111.748 159.6 110.579C156.183 109.411 154.026 102.396 154.026 102.396L138.83 105.855L133.609 89.0882C133.609 89.0882 142.265 91.0248 141.298 85.1184C140.245 78.6278 130.883 81.0106 130.883 81.0106L125.264 64.2298L138.94 61.7366L154.97 60.467L169.612 59.2986L176.335 77.7584L176.931 79.3868L179.367 86.0798L182.967 96.0158L163.255 100.524C163.255 100.524 165.114 100.8 165.925 105.115V105.119Z" fill="#4CAF50"/>
<path d="M157.338 82.455L155.116 85.7164C156.568 85.4588 158.098 85.8774 159.527 85.5094C160.214 85.2932 160.878 85.0034 161.51 84.6538C163.113 83.927 164.766 83.3198 166.461 82.8414L173.487 80.6702C174.659 80.3068 176.17 80.04 176.917 81.0106L175.117 73.1722C175.071 72.818 174.929 72.4822 174.709 72.2016C174.398 71.9486 174.009 71.806 173.606 71.7922C170.533 71.4104 166.969 72.1142 164.679 70.012C163.557 68.977 162.898 67.3532 161.464 66.838C160.246 66.401 158.886 66.9484 157.901 67.7764C156.916 68.6044 156.179 69.6946 155.277 70.61C151.919 73.9864 146.382 74.7868 143.68 78.7106C148.32 79.7732 152.529 75.2238 157.287 75.1364C155.918 75.1594 153.307 77.7262 152.249 78.5588C151.095 79.4742 149.002 80.6748 148.919 82.317C148.686 86.6778 155.611 83.2554 157.333 82.4596L157.338 82.455Z" fill="url(#paint0_linear_300_11257)"/>
<path d="M214.184 38.5526C214.052 38.6584 213.923 38.7688 213.777 38.8746C208.725 42.9226 203.664 46.966 198.603 51.0094C196.959 52.2652 195.402 53.636 193.945 55.1034C186.059 63.4432 185.523 76.4796 179.363 86.0982L176.926 79.4052C177.064 78.9314 176.972 78.4208 176.683 78.0206C176.583 77.9102 176.464 77.8228 176.331 77.7584C175.781 77.464 174.998 77.6204 174.357 77.8366C168.018 79.856 161.972 82.708 156.38 86.3144C155.029 87.1884 153.33 88.1452 151.919 87.3724C151.69 87.2804 151.507 87.101 151.402 86.8802C151.173 86.3604 151.631 85.79 152.061 85.4036C155.098 82.6206 158.359 80.0952 161.821 77.8642C158.02 79.1338 154.379 80.845 150.976 82.9702C149.277 84.0512 147.298 85.2794 145.384 84.6768C145.068 84.6124 144.793 84.4238 144.619 84.157C144.312 83.5728 144.816 82.9104 145.306 82.4642C149.272 78.729 153.371 75.1272 157.594 71.6634C155.478 71.9578 153.628 73.1538 151.851 74.3222L145.081 78.8026C144.422 79.235 143.749 79.6674 142.965 79.695C142.182 79.7226 141.344 79.143 141.385 78.3748C141.431 78.0206 141.569 77.6848 141.793 77.4042C144.779 72.864 150.417 70.7112 153.71 66.401L144.536 72.5144C144.092 72.8088 143.57 73.1308 143.052 73.0066C142.347 72.8502 142.008 71.9762 142.182 71.2724C142.356 70.5686 142.883 70.0074 143.401 69.4876C146.872 65.987 150.93 63.2454 154.988 60.4624C156.064 59.7402 157.118 58.9996 158.171 58.2452C162.907 54.8872 168.142 52.3158 173.688 50.6184C174.627 50.3424 175.575 50.0802 176.491 49.726C179.28 48.668 181.666 46.7728 183.906 44.804C187.996 41.1884 191.701 37.1772 195.347 33.1292C197.445 33.8836 199.574 34.592 201.718 35.2084C204.461 36.0226 208.148 36.2572 211.052 37.3152L211.647 37.5452L214.198 38.5434L214.184 38.5526Z" fill="white"/>
<path d="M67.1115 166.341L80.421 170.375L84.5888 168.066L83.0087 152.858C83.0087 152.858 71.1419 149.896 75.5937 144.445C80.05 138.998 84.2453 144.417 84.2453 144.417L88.4268 142.108L87.2085 127.103L71.0824 122.889C71.0824 122.889 77.1692 114.034 73.6701 110.331C71.1831 107.709 63.8734 111.145 62.7147 115.382C62.2246 117.102 62.046 118.896 62.188 120.681L47.5824 113.395L43.4146 115.722L34.7126 157.398L67.1069 166.345L67.1115 166.341Z" fill="white"/>
<path d="M67.1115 166.341L80.421 170.375L84.5888 168.066L83.0087 152.858C83.0087 152.858 71.1419 149.896 75.5937 144.445C80.05 138.998 84.2453 144.417 84.2453 144.417L88.4268 142.108L87.2085 127.103L71.0824 122.889C71.0824 122.889 77.1692 114.034 73.6701 110.331C71.1831 107.709 63.8734 111.145 62.7147 115.382C62.2246 117.102 62.046 118.896 62.188 120.681L47.5824 113.395L43.4146 115.722L34.7126 157.398L67.1069 166.345L67.1115 166.341Z" fill="#231F20"/>
<path d="M71.2793 164.027L84.5888 168.061L87.1811 150.54C87.1811 150.54 75.3143 147.573 79.7661 142.126C84.2178 136.68 88.4177 142.099 88.4177 142.099L91.3626 124.784L75.2593 120.571C75.2593 120.571 78.5249 114.788 75.012 111.085C72.5297 108.463 68.055 108.808 66.8963 113.063C66.4062 114.784 66.2276 116.578 66.3741 118.363L47.587 113.385L38.8896 155.084L71.2839 164.031L71.2793 164.027Z" fill="white"/>
<path d="M71.2793 164.027L84.5888 168.061L87.1811 150.54C87.1811 150.54 75.3143 147.573 79.7661 142.126C84.2178 136.68 88.4177 142.099 88.4177 142.099L91.3626 124.784L75.2593 120.571C75.2593 120.571 78.5249 114.788 75.012 111.085C72.5297 108.463 68.055 108.808 66.8963 113.063C66.4062 114.784 66.2276 116.578 66.3741 118.363L47.587 113.385L38.8896 155.084L71.2839 164.031L71.2793 164.027Z" fill="#4CAF50"/>
<path d="M44.9122 155.705C48.2053 149.679 50.8617 143.124 55.6615 138.221C56.3485 137.522 57.4614 136.832 58.2126 137.466C58.8354 137.995 58.6202 138.994 58.3683 139.771L55.9729 146.837L60.8415 138.819C61.6521 137.512 62.5407 136.114 63.9788 135.59C64.4093 135.406 64.8994 135.406 65.3299 135.59C66.0444 135.958 66.1406 136.914 66.1406 137.715C66.1268 139.895 65.8657 142.066 65.3528 144.182C66.6856 141.928 68.3664 139.9 70.3267 138.166C71.0503 138.699 71.1602 139.725 71.1373 140.613C71.0457 143.773 69.9832 146.818 68.9343 149.804C68.3664 151.432 67.7802 153.065 66.7314 154.427C64.8352 156.874 61.73 157.973 58.7164 158.608C55.7027 159.243 52.5837 159.537 49.7899 160.839C48.6816 161.359 47.6236 162.04 46.4191 162.251C45.1046 162.481 42.123 161.773 41.7795 160.135C41.6284 159.257 44.2527 156.901 44.9077 155.701L44.9122 155.705Z" fill="url(#paint1_linear_300_11257)"/>
<path d="M77.3707 146.492C76.1524 152.633 73.4365 158.231 71.1648 164.059C69.0489 169.473 66.081 174.51 62.3712 178.981C61.7438 179.736 61.0842 180.472 60.5163 181.272C58.7713 183.719 57.7958 186.594 57.0126 189.469C56.0462 193.039 54.7913 199.419 53.7654 205.238C50.7609 205.376 47.7564 205.376 44.7474 205.238C43.6115 205.178 42.494 205.1 41.3765 205.008C39.8743 204.879 38.372 204.7 36.8744 204.465C38.5644 200.095 40.2727 195.698 41.3353 192.409C42.0223 190.454 42.5765 188.457 42.9887 186.424C44.6787 177.049 40.3872 167.79 38.8025 158.392C38.8025 158.392 42.2009 159.753 44.413 159.206C45.2237 159.008 46.4053 157.251 46.9229 156.602C51.1273 151.423 54.6219 145.71 57.3241 139.605C57.9653 138.129 58.8721 136.408 60.4614 136.252C60.7041 136.22 60.956 136.266 61.1667 136.39C61.6567 136.698 61.5743 137.42 61.4277 137.991C60.4156 141.993 59.069 145.898 57.3973 149.666C59.8889 146.515 61.9957 143.078 63.6765 139.431C64.5192 137.586 65.4856 135.461 67.4138 134.909C67.7161 134.794 68.055 134.803 68.3527 134.941C68.9344 135.245 68.8565 136.096 68.7008 136.721C67.4138 142.03 65.9574 147.297 64.3406 152.522C65.9619 151.124 66.8367 149.091 67.6749 147.14C68.7557 144.647 69.8275 142.154 70.8946 139.661C71.2015 138.938 71.5404 138.202 72.1633 137.752C72.7861 137.301 73.8166 137.324 74.1922 137.982C74.3525 138.299 74.4258 138.658 74.4029 139.012C74.3754 144.458 70.8534 149.348 70.4503 154.781C71.8885 151.381 73.3312 147.996 74.7693 144.592C74.9662 144.1 75.2273 143.543 75.7357 143.368C76.4089 143.106 77.1738 143.663 77.4211 144.339C77.5997 145.047 77.5814 145.788 77.3661 146.487L77.3707 146.492Z" fill="white"/>
<path d="M165.435 141.133L168.421 127.494L167.775 124.462L150.834 126.238C150.834 126.238 148.805 138.354 143.048 134.306C137.291 130.258 142.356 125.644 142.356 125.644L141.711 122.613L124.943 124.025L121.994 140.47C121.994 140.47 114.812 135.764 111.405 139.564C108.996 142.255 110.864 148.585 115.174 149.408C116.919 149.771 118.719 149.817 120.482 149.537L116.337 165.697L116.983 168.728L159.032 174.248L165.44 141.123L165.435 141.133Z" fill="white"/>
<path d="M165.435 141.133L168.421 127.494L167.775 124.462L150.834 126.238C150.834 126.238 148.805 138.354 143.048 134.306C137.291 130.258 142.356 125.644 142.356 125.644L141.711 122.613L124.943 124.025L121.994 140.47C121.994 140.47 114.812 135.764 111.405 139.564C108.996 142.255 110.864 148.585 115.174 149.408C116.919 149.771 118.719 149.817 120.482 149.537L116.337 165.697L116.983 168.728L159.032 174.248L165.44 141.123L165.435 141.133Z" fill="#231F20"/>
<path d="M164.789 138.097L167.775 124.458L150.188 123.202C150.188 123.202 148.159 135.318 142.407 131.27C136.654 127.222 141.715 122.608 141.715 122.608L124.302 120.98L121.348 137.425C121.348 137.425 115.357 134.596 111.95 138.4C109.541 141.091 110.218 145.544 114.528 146.367C116.273 146.731 118.069 146.772 119.827 146.492L116.324 165.687L158.377 171.217L164.785 138.101L164.789 138.097Z" fill="#4CAF50"/>
<path d="M150.674 132.6C149.703 132.172 148.237 131.749 147.834 132.728C147.628 133.216 147.866 133.768 148.1 134.242L150.697 139.481L144.427 137.121C144.023 136.914 143.561 136.859 143.121 136.96C142.114 137.338 142.448 138.837 142.961 139.785L146.785 146.864C145.091 147.113 143.465 144.955 141.917 145.733C140.698 146.344 140.904 148.134 141.413 149.399C143.666 154.836 148.278 158.912 151.562 163.801C152.698 165.49 153.706 167.601 152.945 169.482C152.611 170.297 151.984 171.322 152.588 171.976C152.877 172.219 153.234 172.362 153.605 172.385C156.82 172.937 160.099 173.038 163.342 172.684C163.695 161.57 164.235 150.466 164.963 139.375C165.027 138.391 165.082 137.338 164.588 136.487C164.13 135.815 163.511 135.263 162.792 134.886C161.24 133.901 159.71 132.848 158.116 131.919C156.371 130.902 155.927 131.367 156.005 133.326C154.301 133.745 152.245 133.303 150.669 132.604L150.674 132.6Z" fill="url(#paint2_linear_300_11257)"/>
<path d="M217.706 187.487C217.803 190.596 217.097 193.931 215.398 196.452C214.61 197.63 213.562 198.605 212.334 199.304C212.05 199.461 211.757 199.603 211.459 199.732C205.863 195.252 199.918 190.495 196.355 187.772C194.454 186.249 192.448 184.865 190.355 183.618C177.778 176.543 161.547 180.693 148.306 174.956C147.756 174.726 147.142 174.372 147.051 173.788C146.959 173.204 147.353 172.73 147.802 172.376C150.239 170.379 153.793 170.964 156.944 171.152C157.754 171.212 158.753 171.152 159.229 170.476C159.797 169.662 159.289 168.585 158.771 167.753C154.635 161.046 149.625 154.923 143.886 149.541C142.489 148.235 140.932 146.574 141.376 144.707C141.422 144.422 141.564 144.159 141.784 143.971C142.324 143.561 143.085 143.925 143.652 144.297C147.706 146.975 151.53 149.988 155.084 153.309C152.533 149.307 149.519 145.627 146.103 142.342C144.376 140.682 142.398 138.787 142.517 136.39C142.507 136.004 142.654 135.636 142.924 135.36C143.488 134.821 144.394 135.24 145.049 135.654C150.435 139.127 155.725 142.779 160.915 146.607C159.966 144.279 158.075 142.494 156.202 140.792C153.843 138.639 151.503 136.468 149.139 134.302C148.466 133.681 147.765 133.023 147.518 132.149C147.271 131.275 147.655 130.129 148.544 129.927C148.961 129.886 149.377 129.95 149.762 130.116C155.789 132.227 159.884 138.069 165.746 140.604C162.531 137.683 159.321 134.757 156.115 131.836C155.638 131.427 155.135 130.916 155.102 130.272C155.07 129.407 155.973 128.763 156.829 128.749C157.686 128.731 158.473 129.196 159.206 129.623C165.545 133.349 170.72 138.547 176.312 143.327C181.515 147.793 185.972 153.074 189.512 158.958C190.107 159.942 190.675 160.959 191.339 161.911C193.368 164.8 196.208 166.998 199.107 168.999C203.426 171.962 210.566 176.313 216.552 179.745C217.102 182.312 217.633 184.874 217.716 187.491L217.706 187.487Z" fill="white"/>
<path d="M52.6662 80.3436L46.0802 87.5932L45.2145 92.1426L61.3132 99.3646C61.3132 99.3646 67.3497 88.6788 71.3755 94.4518C73.4044 97.3406 71.4213 99.1944 69.9374 98.279L69.0718 102.828L84.8957 110.336L92.6588 96.7656C92.6588 96.7656 99.2723 99.9396 102.432 98.21C104.095 97.2992 105.057 95.5052 105.437 94.093C105.437 94.093 106.22 90.0726 106.028 89.5436C105.68 88.596 103.861 90.5418 102.721 89.8334C98.9837 87.5242 97.5456 88.6788 97.5456 88.6788L107.603 71.0654L108.469 66.516L71.6732 56.0464L52.6616 80.3436H52.6662Z" fill="#231F20"/>
<path d="M53.5364 75.7988L46.0802 87.5978L62.1743 94.8198C62.1743 94.8198 66.7772 86.3006 72.2366 89.93C77.2196 93.2236 69.942 98.3066 69.942 98.3066L85.7659 105.814L93.529 92.2438C93.529 92.2438 100.138 95.4178 103.303 93.6882C106.467 91.9586 107.329 87.6254 103.587 85.3116C99.8448 82.9978 98.4113 84.157 98.4113 84.157L108.474 66.5436L72.5251 51.497L53.5364 75.8034V75.7988Z" fill="white"/>
<path d="M53.5364 75.7988L46.0802 87.5978L62.1743 94.8198C62.1743 94.8198 66.7772 86.3006 72.2366 89.93C77.2196 93.2236 69.942 98.3066 69.942 98.3066L85.7659 105.814L93.529 92.2438C93.529 92.2438 100.138 95.4178 103.303 93.6882C106.467 91.9586 107.329 87.6254 103.587 85.3116C99.8448 82.9978 98.4113 84.157 98.4113 84.157L108.474 66.5436L72.5251 51.497L53.5364 75.8034V75.7988Z" fill="#4CAF50"/>
<path d="M87.9689 80.6656C87.9963 81.4476 87.1582 82.018 86.3888 81.9904C85.6239 81.8892 84.8957 81.581 84.2911 81.098C82.024 79.6076 79.7569 78.1126 77.5081 76.6176C75.7311 75.4492 73.8579 74.2486 71.7786 73.9588C75.9739 77.4226 80.0821 81.0382 84.0438 84.7596C84.5339 85.2058 85.056 85.8682 84.7354 86.4524C84.5613 86.7192 84.2911 86.9124 83.9843 86.9906C82.0561 87.5932 80.0821 86.3466 78.3829 85.284C74.9846 83.1496 71.3435 81.4292 67.5375 80.1596C70.9954 82.3906 74.2609 84.916 77.2975 87.699C77.7051 88.0808 78.186 88.6512 77.957 89.1756C77.8516 89.3964 77.673 89.5758 77.4532 89.6862C76.0242 90.4406 74.3434 89.4884 72.9923 88.6282C67.4001 85.008 61.3545 82.156 55.0158 80.1366C54.6631 80.0262 54.1272 79.7824 53.6372 79.626C53.3303 79.5018 52.9914 79.4834 52.6708 79.5662L48.1045 84.9988L46.4512 81.1946C43.465 73.6276 41.775 65.3016 36.8469 59.0456C36.3981 58.4798 35.9263 57.9324 35.4225 57.4172C33.9661 55.9544 32.4089 54.5928 30.7647 53.3416C26.1388 49.634 20.0887 44.4774 15.1606 40.4478C16.2323 39.8636 17.304 39.3254 18.4078 38.7872C22.6535 36.662 26.9587 34.592 31.2639 32.591C35.3996 37.145 41.3857 43.5252 45.4665 47.1408C47.7015 49.1142 50.0923 51.0048 52.8815 52.0628C53.7975 52.417 54.7501 52.6792 55.6844 52.9552C61.2262 54.6526 66.4612 57.2286 71.1969 60.5866C76.2853 64.2022 81.5981 67.3854 85.9766 71.8474C86.5399 72.312 86.9613 72.9238 87.1948 73.6138C87.3826 74.3176 87.0437 75.21 86.3246 75.3664C85.8071 75.4768 85.2804 75.1502 84.8407 74.8604L75.667 68.747C78.9554 73.071 84.5934 75.21 87.5842 79.7502C87.7994 80.017 87.9368 80.3344 87.9872 80.6748L87.9689 80.6656Z" fill="white"/>
<path d="M53.9074 79.3592L53.6142 79.6352L48.0862 85.008L46.4328 81.2038C43.4467 73.6368 41.7566 65.3108 36.8286 59.0548C37.0255 59.1606 37.6392 59.5148 39.6681 60.651C42.6268 62.3116 47.8618 73.945 49.4373 76.544C50.4311 78.1034 52.0708 79.1384 53.9028 79.3546L53.9074 79.3592Z" fill="url(#paint3_linear_300_11257)"/>
</g>
<defs>
<linearGradient id="paint0_linear_300_11257" x1="160.663" y1="93.173" x2="157.835" y2="-9.9077" gradientUnits="userSpaceOnUse">
<stop stop-color="#231F20" stop-opacity="0"/>
<stop offset="1" stop-color="#231F20"/>
</linearGradient>
<linearGradient id="paint1_linear_300_11257" x1="56.2111" y1="131.583" x2="57.3707" y2="218.058" gradientUnits="userSpaceOnUse">
<stop stop-color="#231F20" stop-opacity="0"/>
<stop offset="1" stop-color="#231F20"/>
</linearGradient>
<linearGradient id="paint2_linear_300_11257" x1="134.868" y1="138.796" x2="221.763" y2="194.034" gradientUnits="userSpaceOnUse">
<stop stop-color="#231F20" stop-opacity="0"/>
<stop offset="1" stop-color="#231F20"/>
</linearGradient>
<linearGradient id="paint3_linear_300_11257" x1="49.9686" y1="69.7682" x2="18.3576" y2="79.2189" gradientUnits="userSpaceOnUse">
<stop stop-color="#231F20" stop-opacity="0"/>
<stop offset="1" stop-color="#231F20"/>
</linearGradient>
<clipPath id="clip0_300_11257">
<rect width="229" height="230" fill="white" transform="translate(0.5)"/>
</clipPath>
</defs>
</svg>
