<svg width="300" height="225" viewBox="0 0 300 225" fill="none" xmlns="http://www.w3.org/2000/svg">
<path d="M63.5249 163.275C63.5249 163.275 73.4999 144 76.5749 140.175C79.6499 136.35 95.0249 93.975 95.1749 93.525C95.3249 93.075 68.2499 96 65.0249 98.625C61.7999 101.25 58.7249 125.325 56.0249 127.95C53.3249 130.575 43.4249 142.875 43.4249 142.875L63.5249 163.275Z" fill="white"/>
<path d="M63.5249 163.65C63.4499 163.65 63.3 163.575 63.225 163.575L43.125 143.175C42.975 143.025 42.975 142.8 43.125 142.65C43.5 142.125 53.175 130.35 55.8 127.725C57 126.525 58.3499 120.45 59.6999 114.525C61.4249 106.95 63 99.825 64.8 98.325C66.6 96.825 74.6999 95.475 81.1499 94.575C83.25 94.275 94.95 92.775 95.475 93.225C95.625 93.375 95.625 93.525 95.55 93.675C95.475 93.75 95.1 94.95 94.5 96.525C90.825 106.575 79.5 137.1 76.875 140.4C73.875 144.225 63.9749 163.275 63.8999 163.425C63.8249 163.575 63.7499 163.65 63.5249 163.65ZM43.9499 142.875L63.4499 162.675C65.025 159.675 73.5 143.55 76.2749 139.95C78 137.775 83.85 123.075 93.75 96.3C94.2 95.025 94.5 94.275 94.6499 93.9C91.0499 93.975 68.1 96.6 65.25 98.925C63.6 100.275 61.875 107.925 60.375 114.675C58.875 121.275 57.5999 126.9 56.3249 128.25C53.9249 130.65 45.3749 141.075 43.9499 142.875Z" fill="#231F20"/>
<path d="M58.5 180.3L70.875 154.575L46.425 134.475L25.125 161.25L58.5 180.3Z" fill="#4CAF50"/>
<path d="M58.5 180.6C58.425 180.6 58.35 180.6 58.35 180.525L24.975 161.55C24.9 161.475 24.825 161.4 24.825 161.325C24.825 161.25 24.825 161.1 24.9 161.025L46.125 134.25C46.2 134.175 46.275 134.1 46.35 134.1C46.425 134.1 46.575 134.1 46.65 134.175L71.1 154.275C71.25 154.35 71.25 154.575 71.175 154.725L58.8 180.45C58.725 180.525 58.65 180.6 58.575 180.675C58.575 180.6 58.5 180.6 58.5 180.6ZM25.725 161.1L58.35 179.7L70.425 154.65L46.5 135L25.725 161.1Z" fill="#231F20"/>
<path d="M64.3499 159.075C64.2749 159.075 64.1999 159.075 64.1249 159L43.1249 143.175C42.9749 143.025 42.8999 142.8 43.0499 142.65C43.1999 142.5 43.4249 142.425 43.5749 142.575L64.5749 158.4C64.7249 158.55 64.7999 158.775 64.6499 158.925C64.6499 159.075 64.4999 159.075 64.3499 159.075Z" fill="white"/>
<path d="M235.65 163.275C235.65 163.275 225.675 144.075 222.6 140.175C219.525 136.275 204.15 93.975 203.925 93.525C203.7 93.075 230.85 96 234.075 98.625C237.3 101.25 240.375 125.325 243.075 127.95C245.775 130.575 255.75 142.875 255.75 142.875L235.65 163.275Z" fill="white"/>
<path d="M235.65 163.65C235.5 163.65 235.35 163.575 235.35 163.425C235.275 163.2 225.3 144.15 222.3 140.4C219.675 137.1 208.425 106.575 204.675 96.525C204.075 94.95 203.7 93.825 203.625 93.675C203.55 93.525 203.625 93.3 203.7 93.225C204.225 92.775 215.925 94.275 218.025 94.575C224.475 95.475 232.575 96.825 234.375 98.325C236.175 99.825 237.825 106.95 239.55 114.525C240.9 120.45 242.25 126.525 243.375 127.725C246 130.35 255.675 142.125 256.05 142.65C256.2 142.8 256.2 143.025 256.05 143.175L235.95 163.5C235.875 163.575 235.8 163.65 235.65 163.65ZM204.525 93.9C204.675 94.275 204.9 95.025 205.425 96.3C215.325 123.15 221.25 137.85 222.9 139.95C225.75 143.55 234.15 159.675 235.725 162.675L255.225 142.875C253.725 141.075 245.25 130.65 242.85 128.25C241.5 126.9 240.225 121.275 238.8 114.675C237.3 107.925 235.575 100.2 233.925 98.925C231.075 96.6 208.125 93.975 204.525 93.9Z" fill="#231F20"/>
<path d="M237.375 180.525L228.375 154.575L253.725 138L272.175 166.35L237.375 180.525Z" fill="#4CAF50"/>
<path d="M237.375 180.9C237.3 180.9 237.3 180.9 237.225 180.9C237.15 180.825 237.075 180.75 237 180.675L228 154.65C227.925 154.5 228 154.275 228.15 154.2L253.575 137.7C253.725 137.625 253.95 137.625 254.1 137.775L272.55 166.05C272.625 166.125 272.625 166.275 272.625 166.35C272.625 166.425 272.475 166.575 272.4 166.575L237.6 180.825C237.525 180.975 237.45 180.975 237.375 180.9ZM228.825 154.725L237.675 180.075L271.65 166.2L253.65 138.6L228.825 154.725Z" fill="#231F20"/>
<path d="M235.05 159.9C234.9 159.9 234.825 159.825 234.75 159.75C234.675 159.6 234.675 159.375 234.825 159.225L255 146.4C255.15 146.25 255.375 146.325 255.525 146.475C255.675 146.625 255.6 146.85 255.45 147C255.45 147 255.375 147 255.375 147.075L235.275 159.9C235.125 159.9 235.05 159.975 235.05 159.9Z" fill="white"/>
<path d="M97.65 69.15C97.65 69.15 70.875 139.95 72.375 140.85C73.875 141.75 107.025 132 114 130.2L150.675 142.125L190.275 133.725L226.425 144.825L207.075 71.775L179.325 57.6L152.1 70.875L126.375 59.4L97.65 69.15Z" fill="white"/>
<path d="M226.425 145.275H226.35L190.275 134.25L150.75 142.575C150.675 142.575 150.6 142.575 150.525 142.575L114 130.65C112.125 131.1 108.45 132.15 104.25 133.35C83.85 139.05 73.275 141.825 72.225 141.225C71.7 140.925 71.025 140.55 84.15 104.625C90.6 87 97.275 69.3 97.35 69.075C97.425 69 97.5 68.85 97.575 68.85L126.3 59.1C126.375 59.1 126.45 59.1 126.6 59.1L152.175 70.5L179.25 57.3C179.325 57.225 179.475 57.225 179.55 57.3L207.3 71.475C207.375 71.55 207.45 71.625 207.45 71.7L226.725 144.675C226.725 144.825 226.725 144.975 226.65 145.05C226.65 145.2 226.5 145.275 226.425 145.275ZM190.275 133.425H190.35L225.9 144.3L206.775 72.075L179.325 58.05L152.25 71.25C152.175 71.325 152.025 71.325 151.95 71.25L126.3 59.85L97.875 69.45C87.75 96.6 72.825 137.25 72.675 140.55C74.775 140.7 93.75 135.45 103.95 132.6C108.3 131.4 112.05 130.35 113.85 129.9C113.925 129.9 114 129.9 114.075 129.9L150.6 141.825L190.125 133.425H190.275Z" fill="#231F20"/>
<path d="M95.775 94.35C95.625 94.35 95.475 94.275 95.4 94.125C95.25 93.75 95.325 93.375 95.475 93C96 92.25 96.75 91.725 97.575 91.575C103.65 89.85 109.95 89.4 116.25 90.3C117 90.45 117.825 90.525 118.575 90.675C121.125 91.125 123.75 91.575 126.3 91.275C128.925 90.825 131.475 89.85 133.725 88.35C139.875 84.5251 143.55 79.05 143.475 73.8C143.475 73.575 143.625 73.425 143.85 73.425C144.075 73.425 144.225 73.575 144.225 73.725C144.3 79.2751 140.55 84.975 134.175 88.95C131.85 90.525 129.225 91.575 126.525 92.025C123.825 92.4 121.125 91.875 118.575 91.425C117.825 91.275 117 91.125 116.25 91.05C110.1 90.15 103.875 90.6 97.95 92.325C97.275 92.475 96.675 92.85 96.3 93.375C96.225 93.525 96.225 93.75 96.225 93.9C96.3 94.125 96.15 94.275 96 94.35C95.85 94.35 95.775 94.35 95.775 94.35Z" fill="#D1D3D4"/>
<path d="M92.925 127.425C92.85 127.425 92.85 127.425 92.775 127.425C92.55 127.35 92.475 127.125 92.55 126.975C95.775 117.9 99.375 109.425 106.875 105.075C112.05 102.075 118.8 101.4 126.9 102.9C129.975 103.5 133.05 104.325 136.05 105.15C139.575 106.2 143.1 107.025 146.7 107.625C151.725 108.45 155.4 108 158.175 106.35C160.95 104.7 162.75 101.775 164.55 98.775C165.675 96.75 166.95 94.875 168.45 93.15C173.25 87.9 180.675 86.325 188.475 85.05C195.15 84 201.525 83.325 206.7 86.625C206.85 86.7 206.925 86.925 206.85 87.15C206.775 87.3 206.55 87.375 206.325 87.3C201.375 84.15 195.15 84.825 188.625 85.875C180.975 87.075 173.625 88.65 168.975 93.75C167.55 95.475 166.275 97.275 165.15 99.225C163.35 102.225 161.55 105.3 158.475 107.1C155.4 108.9 151.725 109.275 146.475 108.45C142.875 107.775 139.275 106.95 135.75 105.975C132.75 105.15 129.75 104.325 126.675 103.725C118.725 102.225 112.125 102.9 107.1 105.825C99.75 110.025 96.3 118.425 93.075 127.35C93.225 127.275 93.075 127.425 92.925 127.425Z" fill="#D1D3D4"/>
<path d="M150.675 142.575C150.45 142.575 150.3 142.425 150.3 142.2L151.8 70.95C151.8 70.725 151.95 70.575 152.175 70.575C152.4 70.575 152.55 70.725 152.55 70.95L151.05 142.2C151.05 142.425 150.825 142.575 150.675 142.575Z" fill="#D1D3D4"/>
<path d="M114 130.65C113.7 130.65 113.625 130.425 113.625 130.2L126 59.4C126 59.175 126.225 59.1 126.375 59.1C126.6 59.1 126.75 59.325 126.675 59.55L114.3 130.35C114.3 130.5 114.15 130.65 114 130.65Z" fill="#D1D3D4"/>
<path d="M190.275 134.175C190.125 134.175 189.9 134.025 189.9 133.875L179.025 57.75C179.025 57.525 179.175 57.375 179.325 57.3C179.55 57.3 179.7 57.45 179.775 57.6L190.65 133.725C190.65 133.95 190.575 134.175 190.275 134.175Z" fill="#D1D3D4"/>
<path d="M216.675 137.7C216.6 137.7 216.6 137.7 216.525 137.7L188.925 126L149.775 135.15C149.7 135.15 149.625 135.15 149.55 135.15L115.425 121.95L82.5 130.35C82.35 130.35 82.2 130.35 82.125 130.275C82.05 130.2 81.975 130.05 82.05 129.9L102.45 72.675C102.45 72.6 102.6 72.525 102.675 72.45L125.4 63.6C125.475 63.525 125.625 63.525 125.7 63.6L152.1 76.5L179.7 63C179.775 62.925 179.925 62.925 180 63L203.925 75.375C204 75.45 204.075 75.525 204.15 75.6L217.125 137.25C217.125 137.4 217.125 137.55 216.975 137.625C216.9 137.7 216.75 137.7 216.675 137.7ZM188.925 125.175C189 125.175 189 125.175 189.075 125.175L216.15 136.725L203.325 75.9L179.775 63.675L152.175 77.175C152.1 77.25 151.95 77.25 151.875 77.175L125.475 64.275L103.05 72.975L82.95 129.375L115.35 120.975C115.425 120.975 115.5 120.975 115.575 120.975L149.7 134.175L188.85 125.025L188.925 125.175Z" fill="#D1D3D4"/>
<path d="M179.7 98.4L176.85 92.625C173.85 86.475 170.85 80.4 167.775 74.325C166.575 72.15 165.975 69.75 165.975 67.275C166.125 59.7 172.35 53.625 179.925 53.7C186.15 53.775 191.55 58.05 193.05 64.05C193.875 67.275 193.5 70.65 192 73.575L184.425 88.875L180 97.875C179.85 98.1 179.775 98.175 179.7 98.4ZM179.7 74.325C183.525 74.325 186.6 71.25 186.6 67.5C186.6 63.675 183.525 60.6 179.775 60.6C176.025 60.6 172.875 63.675 172.875 67.425C172.8 71.25 175.875 74.325 179.7 74.325Z" fill="#4CAF50"/>
<path d="M122.4 113.175L119.55 107.4C116.55 101.325 113.55 95.175 110.475 89.1C109.275 86.925 108.675 84.525 108.675 82.05C108.825 74.475 115.125 68.4 122.7 68.55C128.85 68.7 134.175 72.9 135.75 78.825C136.575 82.05 136.2 85.425 134.7 88.35L127.125 103.65L122.7 112.65C122.625 112.8 122.55 112.95 122.4 113.175ZM122.4 89.1C126.225 89.1 129.3 86.025 129.3 82.275C129.3 78.45 126.225 75.375 122.475 75.375C118.725 75.375 115.575 78.45 115.575 82.2C115.575 85.95 118.65 89.025 122.4 89.1Z" fill="#4CAF50"/>
<path d="M232.35 109.8C226.125 105.525 219.15 102.45 212.025 99.9C210.225 99.3 208.35 98.7 206.55 99.075C204.75 99.45 203.025 101.175 203.4 103.05C203.7 104.475 205.05 105.45 206.325 106.2L222.6 116.4C220.8 123.375 223.275 130.725 228.975 135.15" fill="white"/>
<path d="M228.975 135.6C228.9 135.6 228.825 135.6 228.75 135.525C222.975 131.1 220.425 123.675 222.15 116.625L206.1 106.575C204.75 105.75 203.325 104.775 203.025 103.2C202.575 101.1 204.525 99.225 206.475 98.775C208.425 98.325 210.225 98.925 212.175 99.6C220.5 102.525 226.95 105.75 232.575 109.5C232.725 109.65 232.8 109.875 232.65 110.025C232.5 110.175 232.275 110.25 232.125 110.1C226.575 106.275 220.2 103.2 211.875 100.275C210.075 99.6 208.275 99.075 206.625 99.45C204.975 99.825 203.475 101.325 203.775 102.975C204 104.25 205.275 105.075 206.475 105.9L222.75 116.1C222.9 116.175 222.975 116.325 222.9 116.55C221.1 123.375 223.575 130.575 229.125 134.925C229.275 135.075 229.35 135.3 229.2 135.45C229.2 135.525 229.125 135.525 228.975 135.6Z" fill="#231F20"/>
<path d="M66.9 109.8C73.125 105.525 80.1 102.45 87.225 99.9C88.95 99.3 90.9 98.7 92.7 99.075C94.5 99.45 96.225 101.175 95.85 103.05C95.55 104.475 94.2 105.45 93 106.2L76.725 116.4C78.525 123.375 76.05 130.725 70.35 135.15" fill="white"/>
<path d="M70.275 135.6C70.05 135.6 69.9 135.45 69.9 135.225C69.9 135.075 69.975 135 70.05 134.925C75.6 130.575 78.075 123.375 76.275 116.55C76.2 116.4 76.275 116.25 76.425 116.1L92.7 105.9C93.975 105.15 95.175 104.25 95.4 102.975C95.7 101.325 94.125 99.825 92.55 99.45C90.975 99.075 89.1 99.6 87.3 100.275C79.05 103.2 72.6 106.35 67.05 110.1C66.9 110.25 66.675 110.175 66.525 110.025C66.375 109.875 66.45 109.65 66.6 109.5C72.15 105.675 78.675 102.525 87 99.6C88.875 98.925 90.75 98.325 92.7 98.775C94.65 99.225 96.525 101.1 96.15 103.2C95.85 104.775 94.5 105.75 93.075 106.575L77.025 116.625C78.825 123.675 76.2 131.1 70.5 135.525C70.425 135.6 70.35 135.6 70.275 135.6Z" fill="#231F20"/>
<path d="M74.7 76.875C74.625 76.875 74.55 76.875 74.475 76.8L61.2 66.6C61.05 66.45 60.975 66.225 61.125 66.075C61.275 65.925 61.5 65.85 61.65 66L74.925 76.125C75.075 76.275 75.15 76.5 75 76.65C74.925 76.8 74.85 76.875 74.7 76.875Z" fill="#D1D3D4"/>
<path d="M145.125 52.425C144.9 52.425 144.75 52.275 144.75 52.125L143.775 44.55C143.775 44.325 143.925 44.175 144.075 44.1C144.3 44.1 144.45 44.25 144.525 44.4L145.5 51.975C145.5 52.2 145.35 52.425 145.125 52.425Z" fill="#D1D3D4"/>
<path d="M231.9 83.4C231.75 83.4 231.675 83.325 231.6 83.25C231.45 83.1 231.525 82.875 231.675 82.725L245.625 71.775C245.775 71.625 246 71.7 246.15 71.85C246.3 72 246.225 72.225 246.075 72.375L232.125 83.325C232.05 83.4 231.975 83.475 231.9 83.4Z" fill="#D1D3D4"/>
<path d="M202.575 57.075C202.5 57.075 202.425 57.075 202.425 57C202.275 56.925 202.2 56.7 202.275 56.475L205.65 50.55C205.725 50.4 205.95 50.325 206.175 50.4C206.325 50.475 206.4 50.7 206.325 50.925L202.95 56.85C202.875 57 202.725 57.075 202.575 57.075Z" fill="#D1D3D4"/>
<path d="M85.05 170.925C84.975 170.925 84.9 170.925 84.825 170.85C84.675 170.7 84.6 170.475 84.75 170.325L96.975 154.275C97.125 154.125 97.35 154.125 97.5 154.275C97.65 154.425 97.65 154.575 97.575 154.8L85.35 170.85C85.275 170.85 85.2 170.925 85.05 170.925Z" fill="#D1D3D4"/>
<path d="M205.05 167.55C204.975 167.55 204.825 167.475 204.75 167.4L191.25 151.35C191.1 151.2 191.175 150.975 191.325 150.825C191.475 150.75 191.7 150.75 191.775 150.9L205.275 166.95C205.425 167.1 205.35 167.325 205.2 167.475C205.2 167.475 205.125 167.55 205.05 167.55Z" fill="#D1D3D4"/>
<path d="M141.675 165.825C141.45 165.825 141.3 165.6 141.3 165.375L142.575 156.075C142.575 155.85 142.8 155.7 143.025 155.775C143.25 155.775 143.4 156 143.325 156.225L142.05 165.525C142.05 165.75 141.825 165.825 141.675 165.825Z" fill="#D1D3D4"/>
</svg>
