<svg width="300" height="301" viewBox="0 0 300 301" fill="none" xmlns="http://www.w3.org/2000/svg">
<path d="M244.02 228.74C244.02 228.74 238.68 218.06 238.38 211.28C238.08 204.5 233.34 168.32 229.5 156.14C225.66 143.96 210.3 127.34 195.78 117.38C192.6 115.22 178.02 107 178.02 107L175.62 149.9C175.62 149.9 196.62 174.74 197.82 185.42C199.02 196.1 192.78 215 196.86 222.08C204.06 234.74 199.8 228.38 208.38 240.86L244.02 228.74Z" fill="white"/>
<path d="M208.44 241.4C208.26 241.4 208.14 241.34 208.08 241.22L206.4 238.76C202.14 232.58 202.14 232.58 200.64 229.76C199.92 228.38 198.78 226.28 196.56 222.38C194.16 218.12 195.24 210.14 196.38 201.74C197.16 195.98 198 189.98 197.46 185.54C196.32 175.16 175.56 150.56 175.38 150.26C175.32 150.14 175.26 150.02 175.26 149.9L177.66 107.06C177.66 106.88 177.78 106.76 177.9 106.7C178.02 106.64 178.2 106.64 178.38 106.7C178.98 107.06 193.02 114.92 196.14 117.08C209.52 126.26 225.9 143.06 230.04 156.08C233.94 168.32 238.62 204.26 238.92 211.34C239.22 217.94 244.44 228.5 244.5 228.62C244.56 228.74 244.56 228.86 244.5 228.98C244.44 229.1 244.32 229.22 244.2 229.22L208.62 241.4C208.56 241.4 208.5 241.4 208.44 241.4ZM176.16 149.78C178.02 152 197.16 175.04 198.36 185.42C198.84 189.98 198.06 195.98 197.22 201.86C196.14 209.78 195.06 217.94 197.28 221.96C199.5 225.86 200.64 227.96 201.36 229.34C202.86 232.1 202.86 232.1 207.06 238.28L208.56 240.44L243.3 228.5C242.22 226.34 238.14 217.4 237.9 211.34C237.6 204.5 232.8 168.26 229.02 156.38C225.42 145.1 211.02 128.54 195.48 117.86C192.78 116 181.32 109.52 178.44 107.9L176.16 149.78Z" fill="#231F20"/>
<path d="M55.98 228.74C55.98 228.74 61.32 218.06 61.62 211.28C61.92 204.5 66.66 168.32 70.5 156.14C74.34 143.96 89.7 127.34 104.22 117.38C107.4 115.22 121.98 107 121.98 107L124.32 149.9C124.32 149.9 103.32 174.74 102.12 185.42C100.92 196.1 107.16 215 103.08 222.08C95.88 234.74 100.14 228.38 91.56 240.86L55.98 228.74Z" fill="white"/>
<path d="M91.56 241.4C91.5 241.4 91.44 241.4 91.44 241.4L55.86 229.16C55.74 229.1 55.62 229.04 55.56 228.92C55.5 228.8 55.5 228.68 55.56 228.56C55.62 228.44 60.84 217.94 61.14 211.28C61.44 204.2 66.18 168.26 70.02 156.02C74.16 143 90.54 126.2 103.92 117.02C107.04 114.86 121.08 107 121.68 106.64C121.8 106.58 121.98 106.58 122.16 106.64C122.28 106.7 122.4 106.88 122.4 107L124.8 149.84C124.8 149.96 124.74 150.08 124.68 150.2C124.5 150.44 103.74 175.04 102.6 185.42C102.12 189.86 102.9 195.8 103.68 201.62C104.82 210.08 105.9 218 103.5 222.26C101.28 226.16 100.14 228.26 99.42 229.64C97.92 232.46 97.92 232.46 93.66 238.64L91.98 241.1C91.86 241.28 91.74 241.4 91.56 241.4ZM56.64 228.44L91.38 240.38L92.88 238.22C97.08 232.1 97.08 232.1 98.64 229.28C99.36 227.9 100.5 225.8 102.72 221.9C105 217.94 103.86 209.72 102.78 201.8C102 195.98 101.16 189.92 101.64 185.36C102.78 174.98 121.92 152 123.84 149.72L121.5 107.78C118.62 109.4 107.16 115.88 104.46 117.74C88.92 128.42 74.52 144.98 70.92 156.26C67.14 168.14 62.34 204.44 62.04 211.22C61.8 217.4 57.72 226.28 56.64 228.44Z" fill="#231F20"/>
<path d="M100.14 255.92C100.62 253.82 100.92 251.66 100.98 249.5C100.98 246.8 98.16 242.84 98.16 242.84L99.9 234.08C99.9 234.08 55.74 216.86 53.94 219.2C52.14 221.54 48.6 234.14 48.6 234.14C48.6 234.14 42.96 237.5 41.22 240.98C40.2 242.96 38.4 250.22 37.02 255.98L100.14 255.92Z" fill="#4CAF50"/>
<path d="M93.6 246.74C93.54 246.74 93.48 246.74 93.48 246.74L53.28 234.56C53.04 234.5 52.86 234.26 52.98 233.96C53.04 233.72 53.34 233.54 53.58 233.66L93.78 245.84C94.02 245.9 94.14 246.2 94.08 246.44C93.96 246.62 93.84 246.74 93.6 246.74Z" fill="#231F20"/>
<path d="M199.86 255.92H262.98C261.66 250.16 259.8 242.9 258.78 240.92C256.98 237.44 251.4 234.08 251.4 234.08C251.4 234.08 247.86 221.6 246.06 219.2C244.26 216.8 200.1 234.08 200.1 234.08L201.84 242.84C201.84 242.84 199.08 246.74 199.02 249.5C199.14 251.72 199.38 253.82 199.86 255.92Z" fill="#4CAF50"/>
<path d="M244.02 235.34L207.78 246.32L244.02 235.34Z" fill="white"/>
<path d="M207.72 246.74C207.48 246.74 207.24 246.5 207.24 246.26C207.24 246.08 207.36 245.9 207.54 245.84L243.78 234.86C244.02 234.8 244.32 234.92 244.38 235.16C244.44 235.4 244.32 235.7 244.08 235.76L207.84 246.74C207.84 246.74 207.78 246.74 207.72 246.74Z" fill="#231F20"/>
<path d="M116.1 45.5H183.9C186.66 45.5 188.88 47.72 188.88 50.48V195.44C188.88 198.2 186.66 200.42 183.9 200.42H116.1C113.34 200.42 111.12 198.2 111.12 195.44V50.48C111.12 47.72 113.34 45.5 116.1 45.5Z" fill="white"/>
<path d="M183.9 200.9H116.1C113.1 200.9 110.7 198.5 110.7 195.5V50.48C110.7 47.48 113.1 45.08 116.1 45.08H183.9C186.9 45.08 189.3 47.48 189.3 50.48V195.44C189.3 198.44 186.9 200.9 183.9 200.9ZM116.1 45.98C113.64 45.98 111.6 47.96 111.6 50.48V195.44C111.6 197.9 113.58 199.94 116.1 199.94H183.9C186.36 199.94 188.4 197.9 188.4 195.44V50.48C188.4 48.02 186.42 45.98 183.9 45.98H116.1Z" fill="#231F20"/>
<path d="M184.8 59.54H115.26V178.76H184.8V59.54Z" fill="white"/>
<path d="M184.8 179.24H115.26C115.02 179.24 114.78 179.06 114.78 178.76V59.54C114.78 59.3 114.96 59.06 115.26 59.06H184.8C185.04 59.06 185.28 59.24 185.28 59.54V178.76C185.28 179 185.04 179.24 184.8 179.24ZM115.74 178.28H184.32V60.02H115.68L115.74 178.28Z" fill="#231F20"/>
<path d="M157.02 52.7H137.22C136.98 52.7 136.74 52.46 136.74 52.22C136.74 51.98 136.92 51.74 137.22 51.74H157.02C157.26 51.74 157.5 51.92 157.5 52.22C157.5 52.46 157.26 52.7 157.02 52.7Z" fill="#D1D3D4"/>
<path d="M162.48 52.7H159.84C159.6 52.7 159.36 52.46 159.36 52.22C159.36 51.98 159.54 51.74 159.84 51.74H162.48C162.72 51.74 162.96 51.98 162.96 52.22C162.9 52.52 162.72 52.7 162.48 52.7Z" fill="#D1D3D4"/>
<path d="M184.8 66.74H115.26C115.02 66.74 114.78 66.56 114.78 66.26C114.78 66.02 114.96 65.78 115.26 65.78H184.8C185.04 65.78 185.28 65.96 185.28 66.26C185.28 66.5 185.04 66.74 184.8 66.74Z" fill="#231F20"/>
<path d="M181.74 71.54H177.9H177.72H149.88C148.86 71.54 148.08 72.32 148.08 73.34V80.36C148.08 81.38 148.86 82.16 149.88 82.16H177.72C178.74 82.16 179.52 81.38 179.52 80.36V73.76L181.74 71.54Z" fill="#D1D3D4"/>
<path d="M122.16 106.4H126H126.18H154.02C155.04 106.4 155.82 107.18 155.82 108.2V119.12C155.82 120.14 155.04 120.92 154.02 120.92H126.18C125.16 120.92 124.38 120.14 124.38 119.12V108.56L122.16 106.4Z" fill="#D1D3D4"/>
<path d="M122.16 141.68H126C126.06 141.68 126.12 141.68 126.18 141.68H159C160.02 141.68 160.8 142.46 160.8 143.48V158.66C160.8 159.68 160.02 160.46 159 160.46H126.18C125.16 160.46 124.38 159.68 124.38 158.66V143.9L122.16 141.68Z" fill="#D1D3D4"/>
<path d="M181.74 125.42H177.9H177.72H149.88C148.86 125.42 148.08 126.2 148.08 127.22V134.24C148.08 135.26 148.86 136.04 149.88 136.04H177.72C178.74 136.04 179.52 135.26 179.52 134.24V127.64L181.74 125.42Z" fill="#D1D3D4"/>
<path d="M142.8 84.62H177C178.38 84.62 179.46 85.7 179.46 87.08V98.66C179.46 100.04 178.38 101.12 177 101.12H142.8C141.42 101.12 140.34 100.04 140.34 98.66V87.08C140.28 85.76 141.42 84.62 142.8 84.62Z" fill="#D1D3D4"/>
<path d="M123.06 166.52H177C179.16 166.52 180.9 168.26 180.9 170.42C180.9 172.58 179.16 174.32 177 174.32H123.06C120.9 174.32 119.16 172.58 119.16 170.42C119.16 168.26 120.9 166.52 123.06 166.52Z" fill="white"/>
<path d="M176.94 174.8H123C120.6 174.74 118.68 172.7 118.8 170.24C118.86 167.96 120.72 166.1 123 166.04H176.94C179.34 166.1 181.26 168.14 181.14 170.6C181.08 172.88 179.22 174.68 176.94 174.8ZM123.06 167C121.14 167 119.64 168.56 119.64 170.42C119.64 172.28 121.2 173.84 123.06 173.84H177C178.92 173.84 180.42 172.28 180.42 170.42C180.42 168.56 178.86 167 177 167H123.06Z" fill="#D1D3D4"/>
<path d="M96.24 234.14C96.24 234.14 111.6 221.48 112.8 207.02C114 192.56 111.6 177.5 113.4 174.26C115.2 171.02 127.56 153.26 130.26 148.52C133.8 142.28 128.46 136.7 124.62 139.04C120.78 141.38 105.66 149.96 97.68 161.54C97.68 161.54 92.94 166.58 88.8 175.46" fill="white"/>
<path d="M96.24 234.56C96 234.56 95.76 234.32 95.76 234.08C95.76 233.96 95.82 233.84 95.94 233.72C96.12 233.6 111.18 221 112.32 206.9C112.92 199.88 112.62 192.62 112.38 186.8C112.14 180.38 111.96 175.76 112.92 173.96C113.76 172.4 117.12 167.42 120.6 162.2C124.44 156.5 128.34 150.68 129.78 148.22C131.7 144.86 130.86 141.74 129.18 140.06C127.86 138.8 126.18 138.5 124.8 139.34L123.78 139.94C118.74 143 105.36 151.04 98.04 161.66C97.92 161.78 93.24 166.82 89.22 175.52C89.1 175.76 88.86 175.82 88.62 175.76C88.38 175.64 88.32 175.4 88.38 175.16C92.52 166.34 97.32 161.18 97.32 161.12C104.76 150.38 118.26 142.28 123.3 139.16L124.32 138.56C126.06 137.48 128.22 137.84 129.84 139.4C131.76 141.26 132.78 144.86 130.62 148.64C129.18 151.1 125.28 156.98 121.44 162.68C117.96 167.9 114.6 172.82 113.76 174.38C112.92 175.94 113.1 180.68 113.34 186.74C113.58 192.56 113.82 199.88 113.28 206.96C112.08 221.48 96.72 234.32 96.54 234.44C96.48 234.56 96.36 234.62 96.24 234.56Z" fill="#231F20"/>
<path d="M203.76 234.14C203.76 234.14 188.4 221.48 187.2 207.02C186 192.56 188.4 177.5 186.6 174.26C184.8 171.02 172.44 153.26 169.74 148.52C166.2 142.28 171.54 136.7 175.38 139.04C179.22 141.38 194.34 149.96 202.32 161.54C202.32 161.54 207.06 166.58 211.2 175.46" fill="white"/>
<path d="M203.76 234.56C203.64 234.56 203.52 234.5 203.46 234.44C203.28 234.32 187.92 221.48 186.72 206.96C186.12 199.88 186.42 192.56 186.66 186.74C186.9 180.68 187.08 175.94 186.24 174.38C185.4 172.82 182.1 167.9 178.56 162.68C174.72 156.98 170.76 151.1 169.38 148.64C167.22 144.86 168.18 141.26 170.16 139.4C171.78 137.84 173.94 137.48 175.68 138.56L176.7 139.16C181.8 142.22 195.3 150.38 202.74 161.18C202.74 161.18 207.54 166.28 211.68 175.16C211.8 175.4 211.68 175.64 211.44 175.76C211.2 175.88 210.96 175.76 210.84 175.52C206.76 166.82 202.08 161.78 202.08 161.72C194.7 151.04 181.32 143 176.28 139.94L175.26 139.34C173.88 138.5 172.2 138.74 170.88 140.06C169.2 141.68 168.36 144.86 170.28 148.22C171.66 150.68 175.62 156.5 179.46 162.2C183 167.42 186.3 172.34 187.14 173.96C188.1 175.76 187.92 180.38 187.68 186.8C187.44 192.62 187.2 199.88 187.74 206.9C188.88 221 203.94 233.6 204.12 233.72C204.3 233.9 204.36 234.2 204.18 234.38C204.06 234.5 203.94 234.56 203.76 234.56Z" fill="#231F20"/>
<path d="M58.98 69.56H120.96C124.86 69.56 127.98 72.74 127.98 76.58V104.9C127.98 108.8 124.8 111.92 120.96 111.92H58.98C55.08 111.92 51.96 108.74 51.96 104.9V76.58C51.9 72.68 55.08 69.56 58.98 69.56Z" fill="#4CAF50"/>
<path d="M71.58 102.32C78.9033 102.32 84.84 96.3833 84.84 89.06C84.84 81.7367 78.9033 75.8 71.58 75.8C64.2567 75.8 58.32 81.7367 58.32 89.06C58.32 96.3833 64.2567 102.32 71.58 102.32Z" fill="white"/>
<path d="M66.12 81.98C65.94 83.78 66.18 85.64 66.78 87.38C66.9 87.86 67.2 88.34 67.56 88.76C68.04 89.12 68.58 89.36 69.18 89.48C70.14 89.66 71.1 89.78 72.06 89.78C73.08 89.9 74.1 89.6 74.94 89C75.9 88.22 75.78 87.2 76.2 86.18C76.5 85.4 77.4 85.1 77.7 84.26C77.82 83.78 77.88 83.3 77.82 82.88C77.7 81.62 77.16 80.42 76.32 79.46C75.24 78.32 73.56 77.96 72.06 77.9C70.56 77.84 69 77.54 68.88 79.34C68.34 79.22 67.8 79.28 67.32 79.64C66.6 80.18 66.18 81.08 66.12 81.98Z" fill="white"/>
<path d="M72.12 90.2H72C70.98 90.2 69.96 90.08 69 89.9C68.34 89.84 67.68 89.54 67.14 89.06C66.72 88.64 66.42 88.1 66.24 87.5C65.64 85.7 65.4 83.78 65.52 81.86C65.58 80.84 66.06 79.82 66.84 79.16C67.26 78.86 67.74 78.68 68.28 78.68C68.7 77.18 70.14 77.24 71.28 77.3H71.88C73.86 77.3 75.48 77.9 76.5 78.98C77.4 80 78 81.32 78.12 82.7C78.18 83.24 78.18 83.78 78 84.32C77.82 84.8 77.46 85.22 77.1 85.52C76.86 85.7 76.62 85.94 76.5 86.24C76.38 86.54 76.32 86.84 76.2 87.2C76.08 88.04 75.66 88.76 75.06 89.3C74.28 89.96 73.2 90.26 72.12 90.2ZM66.6 82.04C66.42 83.78 66.66 85.52 67.26 87.2C67.38 87.62 67.56 88.04 67.86 88.34C68.22 88.7 68.7 88.88 69.24 88.94C70.14 89.12 71.1 89.18 72.06 89.24C72.96 89.3 73.86 89.06 74.58 88.58C75 88.16 75.3 87.62 75.36 87.02C75.42 86.66 75.54 86.3 75.66 85.94C75.84 85.52 76.14 85.16 76.5 84.86C76.8 84.62 77.04 84.38 77.16 84.02C77.28 83.66 77.28 83.24 77.22 82.82C77.1 81.68 76.68 80.54 75.9 79.64C74.82 78.44 72.96 78.26 72 78.26C71.82 78.26 71.58 78.26 71.4 78.26C69.96 78.2 69.42 78.26 69.3 79.28C69.3 79.52 69.06 79.76 68.76 79.7H68.7C68.34 79.58 67.92 79.7 67.62 79.94C67.02 80.54 66.66 81.32 66.6 82.04Z" fill="#231F20"/>
<path d="M70.62 105.86L68.76 92.06L75.36 92.96L77.64 105.86L83.28 105.38C83.1 98.72 80.7 93.08 78.96 91.82C76.86 90.26 68.88 90.56 68.88 90.56C68.88 90.56 62.52 93.26 60.9 96.32C60.18 97.64 59.76 101.36 59.94 105.98L70.62 105.86Z" fill="#4CAF50"/>
<path d="M75.36 89.06L76.02 92.66C76.02 92.66 75.18 95 72.78 94.7C71.34 94.52 70.08 93.68 69.36 92.42L68.7 85.88C68.7 85.88 70.32 84.8 69.42 81.08C71.4 81.68 73.5 81.74 75.54 81.26C75.54 81.26 77.04 85.22 76.92 87.02C76.92 87.98 76.26 88.88 75.36 89.06Z" fill="white"/>
<path d="M73.14 95.18C72.96 95.18 72.84 95.18 72.66 95.18C71.1 94.94 69.66 94.04 68.88 92.66C68.88 92.6 68.82 92.54 68.82 92.48L68.16 85.94C68.16 85.76 68.22 85.58 68.34 85.46C68.4 85.4 69.66 84.44 68.88 81.2C68.82 81.02 68.88 80.84 69 80.72C69.12 80.6 69.3 80.54 69.48 80.6C71.4 81.2 73.38 81.26 75.36 80.78C75.6 80.72 75.84 80.84 75.9 81.08C75.96 81.26 77.4 85.16 77.34 87.08C77.34 88.1 76.8 89 75.84 89.42L76.44 92.6C76.44 92.66 76.44 92.78 76.44 92.84C75.96 94.28 74.64 95.18 73.14 95.18ZM69.78 92.24C70.44 93.32 71.52 93.98 72.78 94.16C73.92 94.28 75 93.62 75.42 92.54L74.82 89.12C74.82 89 74.82 88.88 74.88 88.76C74.94 88.64 75.06 88.58 75.18 88.58C75.9 88.4 76.38 87.74 76.32 87.02C76.38 85.64 75.48 82.88 75.12 81.86C73.38 82.22 71.64 82.16 69.96 81.8C70.38 84.38 69.54 85.64 69.12 86.12L69.78 92.24Z" fill="#231F20"/>
<path d="M72.72 83.78C72.72 83.78 74.04 85.7 73.74 86.06C73.44 86.42 72.54 86.18 72.54 86.18" fill="white"/>
<path d="M73.08 86.72C72.84 86.72 72.6 86.66 72.42 86.66C72.18 86.6 72 86.36 72.06 86.12C72.12 85.88 72.36 85.7 72.6 85.76C72.78 85.82 73.02 85.82 73.2 85.82C72.96 85.22 72.66 84.62 72.24 84.08C72.12 83.84 72.18 83.6 72.36 83.42C72.6 83.3 72.84 83.36 73.02 83.54C74.52 85.76 74.16 86.18 73.98 86.36C73.8 86.6 73.44 86.72 73.08 86.72Z" fill="#231F20"/>
<path d="M71.4737 83.9576C71.6062 83.9535 71.7061 83.7086 71.697 83.4105C71.6878 83.1124 71.573 82.8741 71.4405 82.8781C71.308 82.8822 71.208 83.1271 71.2172 83.4252C71.2264 83.7233 71.3412 83.9617 71.4737 83.9576Z" fill="#231F20"/>
<path d="M74.4741 83.7783C74.6066 83.7742 74.7066 83.5292 74.6974 83.2312C74.6882 82.9331 74.5734 82.6947 74.4409 82.6988C74.3084 82.7029 74.2085 82.9478 74.2176 83.2459C74.2268 83.544 74.3416 83.7823 74.4741 83.7783Z" fill="#231F20"/>
<path d="M70.02 84.74C69.78 84.38 69.48 84.14 69.12 83.9C68.94 83.78 68.76 83.72 68.52 83.72C68.34 83.72 68.16 83.78 68.04 83.9C67.62 84.2 67.32 84.74 67.26 85.22C67.26 85.46 67.26 85.7 67.38 85.94C67.56 86.3 67.86 86.6 68.16 86.72C68.52 86.9 68.88 87.02 69.24 87.08" fill="white"/>
<path d="M69.24 87.62H69.12C68.7 87.56 68.28 87.38 67.92 87.2C67.44 86.96 67.08 86.6 66.9 86.12C66.78 85.82 66.72 85.46 66.78 85.16C66.84 84.5 67.2 83.84 67.74 83.48C67.98 83.3 68.22 83.18 68.46 83.18C68.76 83.18 69.12 83.24 69.36 83.48C69.78 83.72 70.14 84.08 70.38 84.44C70.56 84.68 70.5 84.92 70.26 85.1C70.02 85.28 69.72 85.22 69.6 84.98C69.42 84.68 69.12 84.44 68.88 84.26C68.76 84.2 68.64 84.14 68.52 84.14C68.4 84.14 68.34 84.2 68.28 84.26C67.92 84.5 67.74 84.86 67.68 85.28C67.68 85.46 67.68 85.64 67.74 85.76C67.86 86 68.1 86.18 68.34 86.3C68.64 86.42 69 86.54 69.36 86.6C69.6 86.66 69.78 86.9 69.72 87.14C69.72 87.14 69.72 87.14 69.72 87.2C69.66 87.5 69.48 87.62 69.24 87.62Z" fill="#231F20"/>
<path d="M74.88 87.2L71.7 87.5C72 87.98 72.6 88.34 73.2 88.34C74.1 88.34 74.88 87.2 74.88 87.2Z" fill="#231F20"/>
<path d="M120.54 83.12H89.7C89.46 83.12 89.22 82.94 89.16 82.7C89.16 82.46 89.34 82.22 89.58 82.16C89.64 82.16 89.64 82.16 89.7 82.16H120.54C120.78 82.16 120.96 82.4 120.96 82.7C120.9 82.88 120.72 83.06 120.54 83.12Z" fill="white"/>
<path d="M120.54 91.22H89.7C89.46 91.22 89.22 91.04 89.22 90.74C89.22 90.5 89.4 90.26 89.7 90.26H120.54C120.78 90.26 121.02 90.44 121.02 90.74C120.96 91.04 120.78 91.22 120.54 91.22Z" fill="white"/>
<path d="M113.16 99.38H89.7C89.46 99.38 89.22 99.2 89.22 98.9C89.22 98.66 89.4 98.42 89.7 98.42H113.16C113.4 98.42 113.64 98.66 113.64 98.9C113.58 99.14 113.4 99.38 113.16 99.38Z" fill="white"/>
<path d="M120.96 111.98C120.96 111.98 135.48 112.22 135.24 111.98C135 111.74 123.78 101.6 123.78 101.6L120.96 111.98Z" fill="#4CAF50"/>
<path d="M239.88 93.92H177.9C174 93.92 170.88 90.74 170.88 86.9V58.52C170.88 54.62 174.06 51.5 177.9 51.5H239.88C243.78 51.5 246.9 54.68 246.9 58.52V86.84C246.9 90.74 243.78 93.92 239.88 93.92Z" fill="#4CAF50"/>
<path d="M191.16 84.26C198.483 84.26 204.42 78.3233 204.42 71C204.42 63.6767 198.483 57.74 191.16 57.74C183.837 57.74 177.9 63.6767 177.9 71C177.9 78.3233 183.837 84.26 191.16 84.26Z" fill="white"/>
<path d="M240.06 65H209.22C208.98 65 208.8 64.76 208.8 64.46C208.8 64.22 208.98 64.04 209.22 64.04H240.06C240.3 64.04 240.48 64.28 240.48 64.58C240.48 64.82 240.3 65 240.06 65Z" fill="white"/>
<path d="M240.06 73.16H209.22C208.98 73.16 208.8 72.92 208.8 72.62C208.8 72.38 208.98 72.2 209.22 72.2H240.06C240.3 72.2 240.48 72.44 240.48 72.74C240.48 72.92 240.3 73.1 240.06 73.16Z" fill="white"/>
<path d="M232.68 81.26H209.22C208.98 81.26 208.74 81.08 208.74 80.78C208.74 80.54 208.92 80.3 209.22 80.3H232.68C232.92 80.3 233.16 80.48 233.16 80.78C233.16 81.08 232.92 81.26 232.68 81.26Z" fill="white"/>
<path d="M177.9 93.92C177.9 93.92 163.38 94.16 163.62 93.92C163.86 93.68 175.08 83.54 175.08 83.54L177.9 93.92Z" fill="#4CAF50"/>
<path d="M188.58 60.02H188.94C189.48 60.14 190.02 60.32 190.56 60.56C191.4 59.96 192.54 60.08 193.56 60.44C196.68 61.58 202.08 68.36 199.02 71.66C198.3 72.32 197.4 72.68 196.44 72.74C193.8 73.16 191.16 73.34 188.52 73.16C187.56 73.16 186.6 72.98 185.76 72.56C183.18 71.12 184.68 65.54 185.7 63.38C186.12 62.36 186.72 61.46 187.38 60.56C187.62 60.26 188.1 60.08 188.58 60.02Z" fill="white"/>
<path d="M190.62 73.64C189.9 73.64 189.18 73.64 188.46 73.58C187.44 73.58 186.42 73.34 185.46 72.92C182.58 71.36 184.02 65.72 185.22 63.2C185.64 62.12 186.24 61.16 187.02 60.26C187.44 59.9 187.98 59.66 188.52 59.6C188.64 59.6 188.82 59.6 188.94 59.6C189.48 59.72 190.02 59.84 190.56 60.08C191.58 59.66 192.72 59.6 193.68 60.02C195.96 60.86 199.32 64.4 200.16 67.76C200.58 69.44 200.28 70.94 199.32 71.96C198.54 72.68 197.58 73.1 196.5 73.16C194.52 73.52 192.6 73.64 190.62 73.64ZM188.64 60.44C188.28 60.44 187.92 60.62 187.62 60.86C186.96 61.64 186.42 62.54 186 63.5C184.86 65.9 183.72 70.94 185.88 72.14C186.72 72.5 187.56 72.74 188.52 72.74C191.16 72.92 193.74 72.74 196.38 72.32C197.22 72.26 198.06 71.9 198.72 71.36C199.5 70.52 199.68 69.38 199.32 67.94C198.54 64.88 195.48 61.58 193.38 60.8C192.9 60.62 191.64 60.26 190.8 60.86C190.62 60.98 190.44 60.98 190.26 60.86C189.84 60.68 189.36 60.56 188.88 60.44H188.64Z" fill="#231F20"/>
<path d="M186.6 85.04C186.96 80.9 187.26 75.62 187.26 75.56L193.08 75.8L192.66 85.04L203.88 83C202.98 80.96 201.84 79.04 200.46 77.24C197.82 73.7 192.12 73.7 191.94 73.7C192.06 73.7 194.7 73.7 187.26 73.28C179.22 72.8 176.82 82.4 176.82 82.4L177.96 83L186.6 85.04Z" fill="#4CAF50"/>
<path d="M188.1 72.26L187.44 75.86C187.44 75.86 187.38 77.96 189.72 77.78C191.1 77.66 192.36 76.94 193.2 75.8L193.92 71.36C194.28 69.68 194.58 68 194.76 66.32C193.02 66.86 190.86 64.7 190.32 63.26C190.02 64.16 190.26 65.12 190.86 65.84C189.9 65.48 189.12 64.7 188.82 63.68C188.28 64.1 187.8 64.52 187.38 65C187.02 65.54 186.72 66.14 186.48 66.8C186.12 67.94 185.88 69.62 186.42 70.7C186.72 71.36 187.32 71.96 188.1 72.26Z" fill="white"/>
<path d="M189.48 78.2C188.82 78.26 188.22 78.02 187.74 77.6C187.26 77.12 187.02 76.52 187.02 75.86C187.02 75.8 187.44 73.4 187.62 72.5C186.9 72.08 186.36 71.48 186 70.76C185.28 69.38 185.76 67.34 186.06 66.56C186.24 65.9 186.6 65.24 187.02 64.64C187.02 64.64 188.4 63.08 188.88 63.14C189.06 63.2 189.18 63.26 189.24 63.44C189.36 63.86 189.54 64.22 189.84 64.52C189.72 64.04 189.78 63.5 189.9 63.02C189.96 62.78 190.26 62.66 190.44 62.78C190.56 62.84 190.68 62.9 190.68 63.02C191.16 64.28 193.14 66.32 194.58 65.84C194.7 65.78 194.88 65.84 195 65.9C195.12 65.96 195.18 66.14 195.18 66.26C195.06 67.46 194.94 68.6 194.64 69.8C194.52 70.34 194.46 70.88 194.34 71.36L193.62 75.8C193.62 75.86 193.62 75.92 193.56 75.98C192.72 77.24 191.28 78.08 189.78 78.2H189.48ZM187.86 75.92C187.92 76.34 188.04 76.7 188.34 77C188.7 77.3 189.24 77.42 189.72 77.36C190.98 77.24 192.06 76.64 192.78 75.62L193.5 71.24C193.56 70.7 193.68 70.16 193.8 69.62C193.98 68.66 194.16 67.7 194.28 66.74C192.96 66.8 191.58 65.78 190.74 64.7C190.86 65 190.98 65.24 191.16 65.48C191.34 65.66 191.28 65.9 191.16 66.08C191.04 66.2 190.86 66.2 190.74 66.14C189.84 65.84 189.06 65.18 188.64 64.28C188.28 64.58 187.8 65.06 187.74 65.12C187.38 65.6 187.14 66.2 186.96 66.74C186.48 68.24 186.48 69.56 186.84 70.28C187.14 70.94 187.62 71.48 188.28 71.72C188.52 71.78 188.64 72.02 188.58 72.2C188.52 72.38 187.86 75.8 187.86 75.92Z" fill="#231F20"/>
<path d="M193.74 68.72C193.86 68.48 194.04 68.24 194.28 68.12C194.52 68 194.76 67.94 195 67.88C195.12 67.82 195.3 67.82 195.42 67.88C195.54 67.88 195.6 67.94 195.66 68C195.84 68.12 196.02 68.36 196.02 68.54C196.02 68.72 196.02 68.9 195.96 69.08C195.9 69.26 195.84 69.44 195.72 69.62C195.48 69.98 195.12 70.22 194.76 70.34C194.34 70.46 193.92 70.34 193.56 70.1" fill="white"/>
<path d="M194.46 70.82C194.1 70.82 193.74 70.7 193.38 70.52C193.2 70.4 193.14 70.16 193.26 69.98C193.38 69.8 193.62 69.74 193.74 69.86C193.98 70.04 194.34 70.1 194.64 70.04C194.94 69.98 195.24 69.8 195.42 69.5C195.54 69.38 195.6 69.2 195.6 69.02C195.66 68.9 195.66 68.78 195.66 68.66C195.6 68.54 195.54 68.42 195.42 68.3C195.36 68.24 195.36 68.24 195.3 68.24C195.24 68.24 195.12 68.24 195.06 68.24C194.88 68.3 194.64 68.36 194.46 68.42C194.28 68.54 194.16 68.66 194.1 68.84C194.04 69.02 193.8 69.14 193.62 69.08C193.44 69.02 193.32 68.78 193.38 68.6V68.54C193.5 68.18 193.74 67.94 194.1 67.76C194.34 67.64 194.64 67.52 194.94 67.46C195.12 67.4 195.36 67.4 195.54 67.46C195.66 67.52 195.78 67.58 195.9 67.64C196.14 67.82 196.38 68.12 196.44 68.42C196.5 68.66 196.44 68.9 196.38 69.14C196.32 69.38 196.2 69.62 196.08 69.8C195.78 70.22 195.36 70.52 194.88 70.64C194.82 70.82 194.64 70.82 194.46 70.82Z" fill="#231F20"/>
<path d="M189.18 66.86C189.18 66.86 187.68 68.36 187.86 68.72C188.04 69.08 188.88 69.02 188.88 69.02" fill="white"/>
<path d="M188.76 69.44C188.28 69.5 187.8 69.32 187.5 68.96C187.38 68.78 187.14 68.3 188.88 66.62C189.06 66.44 189.3 66.44 189.48 66.62C189.66 66.8 189.66 67.04 189.48 67.22C189.06 67.64 188.64 68.06 188.34 68.6C188.52 68.66 188.7 68.66 188.94 68.66C189.18 68.66 189.36 68.84 189.36 69.08C189.36 69.32 189.18 69.5 189 69.5H188.76V69.44Z" fill="#231F20"/>
<path d="M191.383 67.4647C191.48 67.2541 191.437 67.027 191.286 66.9575C191.136 66.888 190.935 67.0024 190.838 67.213C190.741 67.4235 190.784 67.6506 190.934 67.7201C191.084 67.7896 191.285 67.6752 191.383 67.4647Z" fill="#231F20"/>
<path d="M188.214 66.8914C188.311 66.6808 188.268 66.4537 188.118 66.3842C187.967 66.3147 187.766 66.4291 187.669 66.6397C187.572 66.8502 187.615 67.0773 187.765 67.1468C187.916 67.2163 188.116 67.1019 188.214 66.8914Z" fill="#231F20"/>
<path d="M187.56 69.68L190.14 69.8C190.14 70.46 189.6 70.94 189 70.94C188.94 70.94 188.82 70.94 188.76 70.94C188.1 70.94 187.62 70.4 187.56 69.68Z" fill="#231F20"/>
</svg>
