<svg width="33" height="32" viewBox="0 0 33 32" fill="none" xmlns="http://www.w3.org/2000/svg">
<path d="M24.3334 9.54669C24.2534 9.53336 24.1601 9.53336 24.0801 9.54669C22.2401 9.48003 20.7734 7.97336 20.7734 6.10669C20.7734 4.20002 22.3068 2.66669 24.2134 2.66669C26.1201 2.66669 27.6534 4.21336 27.6534 6.10669C27.6401 7.97336 26.1734 9.48003 24.3334 9.54669Z" stroke="#C1C1C1" stroke-width="1.5" stroke-linecap="round" stroke-linejoin="round"/>
<path d="M22.9599 19.2534C24.7866 19.5601 26.7999 19.2401 28.2133 18.2934C30.0933 17.0401 30.0933 14.9867 28.2133 13.7334C26.7866 12.7867 24.7466 12.4667 22.9199 12.7867" stroke="#C1C1C1" stroke-width="1.5" stroke-linecap="round" stroke-linejoin="round"/>
<path d="M8.29364 9.54669C8.37364 9.53336 8.46697 9.53336 8.54697 9.54669C10.387 9.48003 11.8536 7.97336 11.8536 6.10669C11.8536 4.20002 10.3203 2.66669 8.41364 2.66669C6.50697 2.66669 4.97363 4.21336 4.97363 6.10669C4.98697 7.97336 6.45364 9.48003 8.29364 9.54669Z" stroke="#C1C1C1" stroke-width="1.5" stroke-linecap="round" stroke-linejoin="round"/>
<path d="M9.66675 19.2534C7.84008 19.5601 5.82675 19.2401 4.41342 18.2934C2.53342 17.0401 2.53342 14.9867 4.41342 13.7334C5.84008 12.7867 7.88008 12.4667 9.70675 12.7867" stroke="#C1C1C1" stroke-width="1.5" stroke-linecap="round" stroke-linejoin="round"/>
<path d="M16.3334 19.5067C16.2534 19.4933 16.1601 19.4933 16.0801 19.5067C14.2401 19.44 12.7734 17.9333 12.7734 16.0667C12.7734 14.16 14.3068 12.6266 16.2134 12.6266C18.1201 12.6266 19.6534 14.1733 19.6534 16.0667C19.6401 17.9333 18.1734 19.4533 16.3334 19.5067Z" stroke="#C1C1C1" stroke-width="1.5" stroke-linecap="round" stroke-linejoin="round"/>
<path d="M12.4535 23.7067C10.5735 24.96 10.5735 27.0133 12.4535 28.2667C14.5868 29.6933 18.0801 29.6933 20.2135 28.2667C22.0935 27.0133 22.0935 24.96 20.2135 23.7067C18.0935 22.2933 14.5868 22.2933 12.4535 23.7067Z" stroke="#C1C1C1" stroke-width="1.5" stroke-linecap="round" stroke-linejoin="round"/>
</svg>
