<svg width="33" height="32" viewBox="0 0 33 32" fill="none" xmlns="http://www.w3.org/2000/svg">
<path d="M23.5736 3.41675C25.2276 3.41684 26.5888 4.71747 26.6722 6.36011L26.6771 6.52026C26.6639 8.18583 25.3616 9.53357 23.722 9.60718C23.6183 9.59785 23.5143 9.59779 23.4105 9.60718C21.769 9.53301 20.4702 8.18317 20.4701 6.52026C20.4701 4.81279 21.8562 3.41675 23.5736 3.41675Z" fill="#004D40" stroke="#004D40" stroke-width="1.5"/>
<path d="M23.5634 14.0952C25.0673 14.0691 26.5392 14.4381 27.6249 15.1587L27.6278 15.1597C28.5244 15.7499 28.8708 16.4547 28.8719 17.063C28.8731 17.6721 28.5284 18.3806 27.6366 18.9771H27.6356C26.559 19.6978 25.0855 20.0653 23.6005 20.0444C23.9004 19.1253 24.0597 18.1499 24.0702 17.1411V17.1333C24.0702 16.0746 23.8979 15.0483 23.5634 14.0952Z" fill="#004D40" stroke="#004D40" stroke-width="1.5"/>
<path d="M9.05322 3.41675C10.7723 3.41675 12.1567 4.80114 12.1567 6.52026C12.1566 8.18349 10.8573 9.53349 9.21533 9.60718C9.11158 9.59785 9.00756 9.59779 8.90381 9.60718C7.26231 9.53301 5.96347 8.18317 5.96338 6.52026C5.96338 4.7995 7.3492 3.41683 9.05322 3.41675Z" fill="#004D40" stroke="#004D40" stroke-width="1.5"/>
<path d="M8.81274 14.093C8.48773 15.0456 8.31669 16.0686 8.31665 17.1331C8.31665 18.153 8.47915 19.1358 8.77856 20.0588C7.48429 20.0396 6.225 19.7189 5.22974 19.1379L4.9856 18.9866C4.08935 18.3899 3.74344 17.6827 3.74341 17.0735C3.74341 16.5018 4.04815 15.8438 4.82642 15.2717L4.98853 15.1584L4.99243 15.1555C6.00251 14.4759 7.3898 14.1051 8.81274 14.093Z" fill="#004D40" stroke="#004D40" stroke-width="1.5"/>
<path d="M16.333 12.75C18.3861 12.75 20.0625 14.3621 20.165 16.3896L20.1699 16.5869C20.1566 18.6551 18.5441 20.3252 16.501 20.4082C16.388 20.399 16.2732 20.4012 16.1602 20.4092C14.1181 20.3368 12.4856 18.6607 12.4834 16.5908C12.4946 14.4666 14.2029 12.7502 16.333 12.75Z" fill="#004D40" stroke="#004D40" stroke-width="1.5"/>
<path d="M12.16 23.92C10.1467 25.2667 10.1467 27.48 12.16 28.8134C14.4534 30.3467 18.2134 30.3467 20.5067 28.8134C22.52 27.4667 22.52 25.2534 20.5067 23.92C18.2267 22.3867 14.4667 22.3867 12.16 23.92Z" fill="#004D40"/>
</svg>
