<svg width="50" height="70" viewBox="0 0 50 70" fill="none" xmlns="http://www.w3.org/2000/svg">
<g clip-path="url(#clip0_595_15236)">
<mask id="mask0_595_15236" style="mask-type:luminance" maskUnits="userSpaceOnUse" x="0" y="0" width="50" height="70">
<path d="M50 0H0V70H50V0Z" fill="white"/>
</mask>
<g mask="url(#mask0_595_15236)">
<path d="M49.401 0.563171H0.570801V69.4262H49.401V0.563171Z" stroke="#FAFAFA" stroke-width="1.04586"/>
<path d="M15.6245 11.4432L13.6792 13.5745H17.604L15.6245 11.4432Z" fill="#FAFAFA"/>
<path d="M20.1669 16.7302L18.2197 14.6327L16.2725 16.7302H20.1669Z" fill="#FAFAFA"/>
<path d="M13.0634 14.6327L11.1162 16.7302H15.0088L13.0634 14.6327Z" fill="#FAFAFA"/>
<path d="M34.5259 14.558L32.5806 16.6893H36.4712L34.5259 14.558Z" fill="#FAFAFA"/>
<path d="M39.0687 19.8787L37.0874 17.7474L35.1421 19.8787H39.0687Z" fill="#FAFAFA"/>
<path d="M31.9644 17.7474L30.019 19.8787H33.9098L31.9644 17.7474Z" fill="#FAFAFA"/>
<path d="M7.57959 42.9541L42.391 42.9634V5.69721L7.57959 5.68787V42.9541ZM8.89168 6.91087H40.969V11.6941H26.1192V18.3765H24.2136V8.76122H8.89168V6.91087ZM8.89168 10.134H22.7897V19.783H27.5412V13.1007H40.969V21.7196L40.3566 21.8656C39.3953 22.0417 38.4529 22.2515 37.539 22.4537L37.5201 22.4575C37.0669 22.5586 36.6119 22.6578 36.1511 22.7553C33.3014 23.3995 30.6734 23.9688 27.3857 24.4109C27.6587 22.8039 26.9003 21.2569 26.7448 20.961L26.4586 20.3954L25.8651 20.6614L25.8423 20.6539L25.7987 20.697C25.7987 20.697 25.7741 20.712 25.7551 20.7232L25.7286 20.7381C25.5522 20.8356 25.137 21.0659 24.6876 21.4311C24.17 21.8525 23.4818 22.5679 23.1367 23.5943C23.112 23.6673 23.0912 23.7404 23.076 23.8059C22.5394 23.01 22.0161 22.3938 21.635 21.9462C20.9581 20.7662 20.0196 19.946 18.9919 19.6369C17.4618 19.1631 15.8918 19.886 15.4482 20.1182L14.8547 20.4385L15.1335 21.0416C15.1714 21.1165 16.0815 22.8882 17.7993 23.4183C18.1254 23.5156 18.4781 23.5624 18.8782 23.5624C19.6271 23.5624 20.3248 23.3621 20.7893 23.1897C21.2861 23.789 21.7108 24.3771 22.0881 24.9896C18.1178 25.2742 13.8005 25.3454 8.89356 25.2031V10.134H8.89168ZM25.9997 24.4502L25.9105 24.7199C25.7551 25.0588 25.5693 25.3285 25.3266 25.5683C25.0763 25.838 24.8261 26.044 24.6421 26.1788C24.6061 26.0758 24.5701 25.9559 24.5379 25.8173C24.4734 25.5645 24.4127 25.3248 24.4127 25.0383C24.39 24.7911 24.3918 24.4127 24.5359 24.0231C24.7085 23.4351 25.1446 22.8751 25.867 22.317C26.0281 22.8002 26.2329 23.6617 25.9997 24.4502ZM20.0082 22.0398C19.5399 22.1803 18.8876 22.2926 18.2961 22.1054C17.8221 21.9555 17.3803 21.6297 16.9119 21.0847C17.3689 20.9461 18.0155 20.8337 18.6279 21.021C19.1019 21.1708 19.5417 21.4967 20.0101 22.0398H20.0082ZM8.89168 26.6114C10.6019 26.6639 12.1377 26.6883 13.5844 26.6883C17.0257 26.6883 20.0594 26.5759 22.8599 26.3455C23.4969 27.5198 24.0486 28.872 24.4999 30.3666C23.6733 30.2935 22.7196 30.213 21.7601 30.1568C21.4283 29.6755 20.7325 28.8495 19.7238 28.5499C18.3112 28.1191 16.9499 28.8008 16.6882 28.9432L16.053 29.2859L16.3204 29.8683C16.3318 29.9039 16.3488 29.9414 16.3735 29.9882C13.9617 29.9994 11.4457 30.0931 8.89168 30.2654V26.6114ZM20.3457 30.5894C19.9949 30.6737 19.5152 30.7524 19.0962 30.6213C18.7947 30.522 18.5312 30.3497 18.241 30.0631C18.1937 30.0163 18.1425 29.962 18.0894 29.9039C18.4193 29.8215 18.88 29.7653 19.3275 29.8964C19.6422 29.9919 19.9551 30.1999 20.3116 30.5519C20.3248 30.5651 20.3362 30.5763 20.3476 30.5894H20.3457ZM8.89168 31.6401C12.369 31.4172 15.1335 31.3386 17.5831 31.3891C17.8846 31.6157 18.224 31.8386 18.6544 31.936C18.9483 32.0334 19.2687 32.0821 19.6081 32.0821C20.6092 32.0821 21.4814 31.6794 21.7298 31.5259C22.8087 31.5858 23.8439 31.6963 24.8943 31.8143C25.1029 32.6571 25.2621 33.4511 25.3759 34.2321C25.0137 33.9662 24.6459 33.7808 24.2838 33.6796C22.7555 33.2058 21.1838 33.9287 20.7381 34.161L20.1447 34.4812L20.4102 35.0599L20.4044 35.0843L20.4481 35.1255C20.4538 35.1348 20.4632 35.1517 20.4765 35.1723L20.4841 35.1835C20.5732 35.3371 20.7799 35.6986 21.1287 36.0956C21.7184 36.768 22.3763 37.2268 23.0893 37.4609C23.4135 37.5565 23.7661 37.6033 24.1681 37.6033C24.6516 37.6033 25.1579 37.5171 25.7096 37.3392C25.7513 37.8767 25.7741 38.4011 25.7798 38.9405C20.5466 39.6316 15.0216 39.9799 8.89168 40.0062V31.6382V31.6401ZM25.2337 36.0469C24.7653 36.1874 24.1112 36.2998 23.5216 36.1125C23.0475 35.9627 22.6076 35.6386 22.1412 35.0955C22.8048 34.9007 23.3794 34.8764 23.8515 35.0262C24.3255 35.1761 24.7673 35.5019 25.2356 36.0469H25.2337ZM8.89168 41.4108C15.4501 41.3527 21.3089 40.9576 26.796 40.2028C26.8491 40.2028 26.9117 40.1916 26.9667 40.1803L26.9856 40.1766C27.0008 40.1728 27.0178 40.1691 27.033 40.1691H27.069C29.1718 39.8694 31.3238 39.5024 33.8417 39.0116C36.1436 38.5359 36.6953 38.3787 38.3316 37.9123L39.2474 37.652L38.6084 37.3355C38.3543 37.2099 38.1041 37.0995 37.8405 36.9815L37.8159 36.9703C37.6698 36.9066 37.522 36.841 37.3703 36.7717L37.2793 36.7305L37.1826 36.7549C36.7958 36.8541 36.4924 36.9347 36.2289 37.0039C35.3927 37.225 34.9718 37.3373 33.563 37.6145C31.4452 38.0396 29.3273 38.4123 27.2681 38.7195C27.2644 38.5491 27.2605 38.3599 27.253 38.1764L27.2663 38.122C27.6682 36.5582 28.8286 35.2172 30.1729 33.6647L30.1919 33.6441C30.4478 33.3481 30.7095 33.0466 30.9806 32.7245C31.1019 32.5653 31.2404 32.4117 31.375 32.2656L31.3371 32.2319L31.3883 32.2525C31.4622 32.172 31.5343 32.0933 31.6006 32.0165C31.9192 31.6495 32.287 31.2936 32.7212 30.9284H32.7534C32.9753 30.9284 33.4398 30.9097 34.0617 30.786C34.4788 30.6681 35.0912 30.4639 35.5975 30.0388C36.8413 28.9806 36.9797 27.2389 36.9873 27.0254H36.9911L37.048 26.3567L36.3824 26.3024C35.9881 26.235 34.2778 26.19 33.1042 27.1883C32.0253 28.0835 31.7732 29.5106 31.7201 29.9583C31.2783 30.3441 30.81 30.8048 30.3283 31.3311C29.1111 31.0745 27.6587 30.7879 26.0888 30.5932C25.8025 29.5462 25.4517 28.5293 25.0441 27.5722C25.7987 27.0909 26.4017 26.5066 26.7904 25.881C30.3909 25.4128 33.2483 24.8023 36.0146 24.2123L37.01 23.9951C37.7571 23.8284 39.6247 23.4163 40.9803 23.1523V41.7086H8.89168V41.4071V41.4108ZM26.4623 32.0315C27.3611 32.157 28.2901 32.3237 29.2988 32.5353C28.4039 33.6628 27.6568 34.7809 27.0747 35.8615C26.9174 34.382 26.7164 33.1271 26.4623 32.0315ZM33.2824 29.5013C33.4056 29.1005 33.6312 28.5742 34.0294 28.2034C34.3708 27.9225 34.877 27.7258 35.4268 27.664C35.2694 28.2427 35.0154 28.681 34.6703 28.9638C34.3309 29.2428 33.8285 29.4376 33.2824 29.5013Z" fill="#FAFAFA"/>
<mask id="mask1_595_15236" style="mask-type:luminance" maskUnits="userSpaceOnUse" x="3" y="47" width="43" height="18">
<path d="M45.9808 47.4686H3.99219V64.3578H45.9808V47.4686Z" fill="white"/>
</mask>
<g mask="url(#mask1_595_15236)">
<path d="M44.5814 49.7815V54.2211H43.5124C43.2923 54.2211 43.1037 54.1901 42.9465 54.1124C42.7892 54.0348 42.6635 53.9262 42.5692 53.7865C42.5534 53.7554 42.522 53.7089 42.5063 53.6778C42.4434 53.5692 42.3962 53.4294 42.3648 53.2897C42.3176 53.1035 42.3019 52.8861 42.3019 52.6688V50.5887H40.9185V53.4294C40.9185 53.7399 40.8714 53.9572 40.7928 54.0659C40.7142 54.1901 40.557 54.2367 40.3212 54.2367H39.7081C39.488 54.2367 39.2994 54.2056 39.1422 54.128C38.985 54.0504 38.8592 53.9417 38.7649 53.802C38.7491 53.7709 38.7177 53.7244 38.702 53.6933C38.6391 53.5847 38.592 53.445 38.5605 53.3053C38.5133 53.119 38.4977 52.9016 38.4977 52.6843V51.3494H37.13V53.4294C37.13 53.7399 37.0828 53.9572 37.0042 54.0659C36.9256 54.1901 36.7684 54.2367 36.5169 54.2367H21.0325C20.7653 54.2367 20.5452 54.1901 20.3723 54.1124C20.215 54.0348 20.0893 53.8951 19.995 53.7399C19.9792 53.7244 19.9792 53.6933 19.9636 53.6778C19.9007 53.5226 19.8535 53.3363 19.8378 53.119C19.8063 52.8706 19.8063 52.5757 19.8063 52.2341C19.8063 51.815 19.7592 51.427 19.6649 51.0544C19.5705 50.6974 19.4291 50.3714 19.2089 50.123C18.9889 49.8592 18.7059 49.6573 18.3601 49.5021C17.9985 49.3469 17.5741 49.2692 17.0553 49.2692H15.4833V50.1696H16.7723C17.1182 50.1696 17.3855 50.2317 17.6055 50.3404C17.8256 50.449 17.9985 50.6197 18.1243 50.8216C18.2501 51.0234 18.3287 51.2717 18.3758 51.5511C18.423 51.8306 18.4387 52.1411 18.4387 52.4825V53.4294C18.4387 53.7089 18.4072 53.9262 18.3287 54.0504C18.2658 54.1745 18.0929 54.2367 17.8256 54.2367H14.7759V55.2146H17.9985C18.2029 55.2146 18.3915 55.1991 18.5959 55.168C18.8002 55.137 18.9732 55.0594 19.1461 54.9662C19.3033 54.8575 19.4448 54.7179 19.5705 54.5316C19.6963 54.3453 19.7592 54.0969 19.8063 53.7865C19.8378 53.9107 19.8692 54.0659 19.9478 54.2367C20.0107 54.4074 20.105 54.5626 20.2308 54.7023C20.3566 54.8421 20.4981 54.9662 20.6867 55.0749C20.8596 55.168 21.064 55.2146 21.3155 55.2301H36.7213C37.02 55.2301 37.2872 55.1991 37.5073 55.1214C37.7274 55.0594 37.9003 54.9507 38.0261 54.8265C38.1675 54.7023 38.2619 54.5471 38.3404 54.3763C38.419 54.2056 38.4662 54.0038 38.4819 53.7865C38.5605 54.2056 38.7335 54.5471 39.0007 54.811C39.2679 55.0904 39.6138 55.2146 40.0382 55.2146H40.5098C41.1229 55.2146 41.5474 55.0749 41.8146 54.811C42.0661 54.5471 42.2233 54.2056 42.2862 53.7709C42.3648 54.1901 42.5377 54.5316 42.805 54.7955C43.0722 55.0749 43.4181 55.1991 43.8425 55.1991H45.9804V49.7815H44.5814Z" fill="#FAFAFA"/>
<path d="M11.1136 57.0306C11.3179 57.0306 11.538 56.9844 11.7738 56.9067C12.0253 56.829 12.2454 56.6735 12.4655 56.4562C12.6856 56.2391 12.8585 55.9442 13.0157 55.5561C13.1572 55.168 13.2357 54.6713 13.2357 54.0659V49.2227H11.8367V54.0814C11.8367 54.5471 11.8052 54.9196 11.7581 55.2146C11.6952 55.5096 11.6166 55.7424 11.4908 55.8976C11.365 56.0528 11.2079 56.177 11.0349 56.2391C10.8463 56.3012 10.6262 56.3323 10.3589 56.3323C10.2489 56.3323 10.1231 56.3323 9.99743 56.3165C9.85593 56.3012 9.74589 56.2701 9.63586 56.2391L9.5415 56.5496C9.77731 56.6893 10.0288 56.8132 10.3118 56.8909C10.5633 56.9844 10.8463 57.0306 11.1136 57.0306Z" fill="#FAFAFA"/>
<path d="M4.49523 55.1991H9.10125C9.1484 54.811 9.17987 54.4384 9.19555 54.0659C9.22702 53.7089 9.22702 53.3518 9.22702 53.0103C9.22702 52.436 9.19555 51.8926 9.1484 51.3494C9.10125 50.806 9.03837 50.2938 8.97548 49.7815H7.08905C6.68033 49.7815 6.28734 49.8591 5.91003 50.0144C5.53276 50.1696 5.20264 50.3869 4.91968 50.6663C4.63671 50.9458 4.41663 51.2872 4.24371 51.6753C4.07079 52.0634 3.99219 52.5136 3.99219 52.9948C3.99219 53.3674 4.03935 53.7399 4.11795 54.1124C4.22799 54.485 4.33803 54.8575 4.49523 55.1991ZM5.53276 51.7995C5.64281 51.5511 5.78426 51.3494 5.95718 51.1941C6.11442 51.0389 6.30308 50.9302 6.49167 50.8681C6.68033 50.806 6.85325 50.775 7.01049 50.775H7.71784C7.76505 51.0855 7.8122 51.4114 7.82793 51.7374C7.85935 52.0634 7.87508 52.3894 7.87508 52.7309C7.87508 52.9792 7.85935 53.2276 7.84361 53.476C7.82793 53.7244 7.79646 53.9728 7.76505 54.2367H5.68996C5.57992 54.0038 5.4856 53.7554 5.43844 53.507C5.39128 53.2431 5.35984 52.9948 5.35984 52.7464C5.35984 52.3584 5.42272 52.0479 5.53276 51.7995Z" fill="#FAFAFA"/>
<path d="M7.98524 48.8656C8.18958 48.8656 8.3625 48.8036 8.504 48.6639C8.64551 48.5241 8.70839 48.3534 8.70839 48.1516C8.70839 47.9653 8.64551 47.8101 8.504 47.6704C8.3625 47.5307 8.20531 47.4686 7.98524 47.4686C7.78085 47.4686 7.62367 47.5307 7.48216 47.6704C7.34072 47.8101 7.27783 47.9653 7.27783 48.1516C7.27783 48.3534 7.34072 48.5241 7.48216 48.6639C7.60793 48.788 7.78085 48.8656 7.98524 48.8656Z" fill="#FAFAFA"/>
<path d="M5.95689 48.8656C6.16128 48.8656 6.31846 48.8036 6.4757 48.6639C6.61715 48.5241 6.69577 48.3534 6.69577 48.1516C6.69577 47.9653 6.61715 47.8101 6.4757 47.6704C6.3342 47.5307 6.16128 47.4686 5.95689 47.4686C5.75256 47.4686 5.59536 47.5307 5.45387 47.6704C5.31239 47.8101 5.24951 47.9653 5.24951 48.1516C5.24951 48.3534 5.31239 48.5241 5.45387 48.6639C5.59536 48.788 5.76829 48.8656 5.95689 48.8656Z" fill="#FAFAFA"/>
<path d="M37.6332 59.9336H36.6899L35.1494 64.2958H35.9354L36.3441 62.9448H37.7589L38.1834 64.2958H39.1109L37.6332 59.9336ZM36.5014 62.4329L36.9101 61.0977C36.9258 61.0515 36.9415 61.0048 36.9572 60.9428C36.973 60.8803 36.9886 60.8341 37.0044 60.7874C37.0201 60.7254 37.0358 60.6629 37.0515 60.601C37.0515 60.6319 37.0673 60.6787 37.083 60.7254C37.0987 60.7716 37.0987 60.8184 37.1144 60.8803C37.1301 60.9428 37.1616 61.02 37.193 61.1134L37.6175 62.4171H36.5014V62.4329Z" fill="#FAFAFA"/>
<path d="M31.7854 62.1378C31.8954 62.0449 32.0054 61.9204 32.0998 61.7498C32.1941 61.5792 32.2412 61.377 32.2412 61.1134C32.2412 60.8341 32.1627 60.5858 31.9897 60.3994C31.8168 60.213 31.5967 60.0733 31.3295 60.0114C31.188 59.9804 31.0308 59.9494 30.8579 59.9494C30.6693 59.9336 30.4806 59.9336 30.2762 59.9336C30.1347 59.9336 30.0247 59.9336 29.8989 59.9336C29.7889 59.9336 29.6788 59.9494 29.6002 59.9494C29.5059 59.9494 29.4116 59.9646 29.333 59.9646V64.311H30.1977V62.5258H30.4806L31.7697 64.2958H32.8229L31.3295 62.3862C31.5024 62.3394 31.6596 62.2623 31.7854 62.1378ZM31.1722 61.8585C31.1251 61.9204 31.0622 61.9672 30.9993 61.9982C30.9365 62.0291 30.8893 62.0449 30.8264 62.0601C30.7792 62.0759 30.7321 62.0759 30.6692 62.0911C30.6221 62.0911 30.5434 62.0911 30.4491 62.0911H30.3234C30.292 62.0911 30.2605 62.0911 30.2448 62.0911C30.2133 62.0911 30.1977 62.0911 30.1819 62.0911V60.3994C30.1977 60.3994 30.2133 60.3994 30.2448 60.3994C30.2605 60.3994 30.292 60.3994 30.3234 60.3994C30.3548 60.3994 30.402 60.3994 30.4649 60.3994C30.5906 60.3994 30.7007 60.4146 30.8107 60.4303C30.9208 60.4613 31.015 60.4923 31.0937 60.57C31.1723 60.632 31.2352 60.7254 31.2824 60.8341C31.3295 60.9428 31.3452 61.0825 31.3452 61.2531C31.3452 61.4085 31.3295 61.5324 31.298 61.6254C31.2666 61.7188 31.2194 61.7966 31.1722 61.8585Z" fill="#FAFAFA"/>
<path d="M26.0316 61.1444C25.9688 60.9738 25.8745 60.8184 25.7644 60.6629C25.6386 60.5081 25.4815 60.3684 25.2771 60.2439C25.1828 60.182 25.0727 60.1353 24.9627 60.1043C24.8526 60.0575 24.7268 60.0266 24.5854 60.0114C24.4439 59.9804 24.2867 59.9646 24.1138 59.9646C23.9409 59.9494 23.7522 59.9494 23.5321 59.9494C23.2492 59.9494 23.0291 59.9494 22.8405 59.9646C22.6518 59.9804 22.526 59.9804 22.416 59.9804V64.2958C22.526 64.311 22.6361 64.311 22.7461 64.311C22.8405 64.3268 22.9505 64.3268 23.0763 64.3268C23.202 64.3268 23.3278 64.3268 23.4693 64.3268C23.768 64.3268 24.0509 64.311 24.3339 64.2801C24.6168 64.2491 24.8526 64.1871 25.057 64.1094C25.4186 63.9388 25.7015 63.6747 25.9059 63.3334C26.0945 62.9916 26.2046 62.5568 26.2046 62.0601C26.2046 61.9362 26.1888 61.7965 26.1731 61.6411C26.126 61.4705 26.0945 61.3151 26.0316 61.1444ZM25.167 62.728C25.1199 62.8986 25.0727 63.0535 25.0099 63.1622C24.947 63.2867 24.8841 63.3796 24.8055 63.4573C24.7268 63.535 24.6483 63.597 24.5697 63.6279C24.4596 63.6904 24.3496 63.7214 24.2238 63.7524C24.0981 63.7676 23.9251 63.7834 23.7365 63.7834H23.5321C23.4693 63.7834 23.4378 63.7834 23.3906 63.7834C23.3435 63.7834 23.3121 63.7676 23.2963 63.7676V60.4461C23.3435 60.4461 23.3749 60.4461 23.4221 60.4461C23.4535 60.4461 23.5007 60.4461 23.5478 60.4303C23.595 60.4303 23.6422 60.4303 23.6893 60.4303C23.9251 60.4303 24.0981 60.4461 24.2238 60.4771C24.3496 60.5081 24.4754 60.5548 24.5854 60.6167C24.7897 60.7254 24.947 60.9118 25.0413 61.1754C25.1513 61.4395 25.1985 61.7498 25.1985 62.1226C25.2299 62.3552 25.2142 62.5568 25.167 62.728Z" fill="#FAFAFA"/>
<path d="M17.7471 62.3242H19.0676V61.7656H17.7471V60.4923H19.2405V59.9336H16.8511V64.2958H19.3191V63.7366H17.7471V62.3242Z" fill="#FAFAFA"/>
<path d="M12.9051 61.8743L12.3548 61.5634C12.1819 61.4547 12.0405 61.3618 11.9461 61.2841C11.8518 61.2064 11.8047 61.0977 11.8047 60.958C11.8047 60.8493 11.8361 60.7564 11.8832 60.6787C11.9304 60.6167 11.9933 60.5548 12.0719 60.5233C12.1505 60.4923 12.2291 60.4613 12.3077 60.4613C12.3863 60.4461 12.4649 60.4461 12.5435 60.4461C12.6692 60.4461 12.795 60.4613 12.9051 60.4771C13.0151 60.4923 13.0937 60.5081 13.1723 60.539C13.2509 60.57 13.3295 60.5858 13.3924 60.6319L13.581 60.0575C13.5024 60.0266 13.4081 59.9956 13.298 59.9646C13.2037 59.9494 13.078 59.9179 12.9365 59.9027C12.795 59.8869 12.6221 59.8717 12.4334 59.8717C11.9618 59.8717 11.6003 59.9804 11.3488 60.182C11.0972 60.3836 10.9715 60.6945 10.9715 61.0977C10.9715 61.2531 10.9872 61.377 11.0344 61.5015C11.0815 61.6101 11.1444 61.7188 11.2073 61.7965C11.2859 61.8895 11.3645 61.9514 11.4588 62.0291C11.5531 62.0911 11.6474 62.1536 11.7418 62.2155L12.3863 62.6035C12.5435 62.6965 12.6535 62.7899 12.7321 62.8677C12.8108 62.9448 12.8422 63.0535 12.8422 63.1932C12.8422 63.4105 12.7635 63.566 12.6064 63.6589C12.4492 63.7524 12.2448 63.7834 11.9776 63.7834C11.8361 63.7834 11.7103 63.7676 11.5846 63.7524C11.4745 63.7366 11.3802 63.7056 11.3016 63.6904C11.2073 63.6589 11.1287 63.6279 11.0501 63.597L10.8457 64.1714C10.9401 64.2023 11.0501 64.2491 11.1758 64.2643C11.2859 64.2958 11.4116 64.311 11.5689 64.3268C11.726 64.342 11.899 64.3578 12.1033 64.3578C12.6064 64.3578 12.9994 64.2491 13.2666 64.0159C13.5338 63.7834 13.6596 63.4731 13.6596 63.0535C13.6596 62.7742 13.5967 62.5416 13.4553 62.371C13.3609 62.1846 13.1723 62.0291 12.9051 61.8743Z" fill="#FAFAFA"/>
</g>
</g>
</g>
<defs>
<clipPath id="clip0_595_15236">
<rect width="50" height="70" fill="white"/>
</clipPath>
</defs>
</svg>
