<svg width="33" height="32" viewBox="0 0 33 32" fill="none" xmlns="http://www.w3.org/2000/svg">
<path d="M16.0002 28C22.9958 28 28.6668 22.3289 28.6668 15.3333C28.6668 8.33769 22.9958 2.66663 16.0002 2.66663C9.00456 2.66663 3.3335 8.33769 3.3335 15.3333C3.3335 22.3289 9.00456 28 16.0002 28Z" stroke="#C1C1C1" stroke-width="1.5" stroke-linecap="round" stroke-linejoin="round"/>
<path d="M18.9 10.0501L13.935 11.2951C13.21 11.4751 12.475 12.2101 12.295 12.9351L11.05 17.9001C10.675 19.4001 11.595 20.3251 13.1 19.9501L18.065 18.7101C18.785 18.5301 19.525 17.7901 19.705 17.0701L20.95 12.1001C21.325 10.6001 20.4 9.67512 18.9 10.0501Z" stroke="#C1C1C1" stroke-linecap="round" stroke-linejoin="round"/>
<path d="M16 16.7501C16.9665 16.7501 17.75 15.9666 17.75 15.0001C17.75 14.0336 16.9665 13.2501 16 13.2501C15.0335 13.2501 14.25 14.0336 14.25 15.0001C14.25 15.9666 15.0335 16.7501 16 16.7501Z" stroke="#C1C1C1" stroke-linecap="round" stroke-linejoin="round"/>
<path d="M29.9997 29.3333L27.333 26.6666" stroke="#C1C1C1" stroke-width="1.5" stroke-linecap="round" stroke-linejoin="round"/>
</svg>
