<svg width="33" height="32" viewBox="0 0 33 32" fill="none" xmlns="http://www.w3.org/2000/svg">
<path d="M16.0007 27.9998C22.9963 27.9998 28.6673 22.3288 28.6673 15.3332C28.6673 8.33756 22.9963 2.6665 16.0007 2.6665C9.00504 2.6665 3.33398 8.33756 3.33398 15.3332C3.33398 22.3288 9.00504 27.9998 16.0007 27.9998Z" fill="#004D40" stroke="#004D40" stroke-width="1.5" stroke-linecap="round" stroke-linejoin="round"/>
<path d="M18.8996 10.05L13.9346 11.295C13.2096 11.475 12.4746 12.21 12.2946 12.935L11.0496 17.9C10.6746 19.4 11.5946 20.325 13.0996 19.95L18.0646 18.71C18.7846 18.53 19.5246 17.79 19.7046 17.07L20.9496 12.1C21.3246 10.6 20.3996 9.675 18.8996 10.05Z" fill="#FAFAFA" stroke="#FAFAFA" stroke-linecap="round" stroke-linejoin="round"/>
<path d="M16 16.75C16.9665 16.75 17.75 15.9665 17.75 15C17.75 14.0335 16.9665 13.25 16 13.25C15.0335 13.25 14.25 14.0335 14.25 15C14.25 15.9665 15.0335 16.75 16 16.75Z" stroke="#004D40" stroke-linecap="round" stroke-linejoin="round"/>
<path d="M30.0007 29.3334L27.334 26.6667" stroke="#004D40" stroke-width="1.5" stroke-linecap="round" stroke-linejoin="round"/>
</svg>
