<svg width="46" height="45" viewBox="0 0 46 45" fill="none" xmlns="http://www.w3.org/2000/svg">
<g clip-path="url(#clip0_610_15315)">
<path d="M23 0.5C35.1503 0.5 45 10.3497 45 22.5C45 34.6503 35.1503 44.5 23 44.5C10.8497 44.5 1 34.6503 1 22.5C1 10.3497 10.8497 0.5 23 0.5Z" fill="#004D40" stroke="#4CAF50"/>
<path d="M17.7 29.75H15.15C13.31 29.75 12.25 28.69 12.25 26.85V15.15C12.25 13.31 13.31 12.25 15.15 12.25H19.45C21.29 12.25 22.35 13.31 22.35 15.15V17C22.35 17.41 22.01 17.75 21.6 17.75C21.19 17.75 20.85 17.41 20.85 17V15.15C20.85 14.13 20.47 13.75 19.45 13.75H15.15C14.13 13.75 13.75 14.13 13.75 15.15V26.85C13.75 27.87 14.13 28.25 15.15 28.25H17.7C18.11 28.25 18.45 28.59 18.45 29C18.45 29.41 18.11 29.75 17.7 29.75Z" fill="#8AEB8E"/>
<path d="M25.9602 33.75H20.1202C18.1102 33.75 16.9502 32.59 16.9502 30.58V19.42C16.9502 17.41 18.1102 16.25 20.1202 16.25H25.9602C27.9702 16.25 29.1202 17.41 29.1202 19.42V30.58C29.1202 32.59 27.9702 33.75 25.9602 33.75ZM20.1202 17.75C18.9202 17.75 18.4502 18.22 18.4502 19.42V30.58C18.4502 31.78 18.9202 32.25 20.1202 32.25H25.9602C27.1502 32.25 27.6202 31.78 27.6202 30.58V19.42C27.6202 18.22 27.1502 17.75 25.9602 17.75H20.1202Z" fill="#8AEB8E"/>
<path d="M30.8499 29.75H28.3699C27.9599 29.75 27.6199 29.41 27.6199 29C27.6199 28.59 27.9599 28.25 28.3699 28.25H30.8499C31.8699 28.25 32.2499 27.87 32.2499 26.85V15.15C32.2499 14.13 31.8699 13.75 30.8499 13.75H26.5499C25.5299 13.75 25.1499 14.13 25.1499 15.15V17C25.1499 17.41 24.8099 17.75 24.3999 17.75C23.9899 17.75 23.6499 17.41 23.6499 17V15.15C23.6499 13.31 24.7099 12.25 26.5499 12.25H30.8499C32.6899 12.25 33.7499 13.31 33.7499 15.15V26.85C33.7499 28.69 32.6899 29.75 30.8499 29.75Z" fill="#8AEB8E"/>
<path d="M25 22.75H21C20.59 22.75 20.25 22.41 20.25 22C20.25 21.59 20.59 21.25 21 21.25H25C25.41 21.25 25.75 21.59 25.75 22C25.75 22.41 25.41 22.75 25 22.75Z" fill="#8AEB8E"/>
<path d="M25 25.75H21C20.59 25.75 20.25 25.41 20.25 25C20.25 24.59 20.59 24.25 21 24.25H25C25.41 24.25 25.75 24.59 25.75 25C25.75 25.41 25.41 25.75 25 25.75Z" fill="#8AEB8E"/>
<path d="M23 33.75C22.59 33.75 22.25 33.41 22.25 33V30C22.25 29.59 22.59 29.25 23 29.25C23.41 29.25 23.75 29.59 23.75 30V33C23.75 33.41 23.41 33.75 23 33.75Z" fill="#8AEB8E"/>
</g>
<defs>
<clipPath id="clip0_610_15315">
<rect width="45" height="45" fill="white" transform="translate(0.5)"/>
</clipPath>
</defs>
</svg>
